<svg version="1.1" xmlns="http://www.w3.org/2000/svg" xmlns:xlink="http://www.w3.org/1999/xlink" width="184.39999999999998" height="184.39999999999998"><defs/><g><rect fill="rgb(255,255,255)" stroke="none" x="0" y="0" width="184.39999999999998" height="184.39999999999998" fill-opacity="0"/><path fill="none" stroke="#000000" paint-order="fill stroke markers" d=" M 2.200000000000017 40.2 L 32.169655114602904 40.2" stroke-linecap="square" stroke-miterlimit="10" stroke-width="0.8"/><path fill="none" stroke="#000000" paint-order="fill stroke markers" d=" M 32.169655114602904 40.2 L 47.15448267190436 66.15448267190433" stroke-linecap="square" stroke-miterlimit="10" stroke-width="0.8"/><path fill="none" stroke="#000000" paint-order="fill stroke markers" d=" M 21.200000000000017 81.13931022920578 L 47.15448267190436 66.15448267190433" stroke-linecap="square" stroke-miterlimit="10" stroke-width="0.8"/><path fill="none" stroke="#000000" paint-order="fill stroke markers" d=" M 2.200000000000017 70.1696551146029 L 21.200000000000017 81.13931022920578" stroke-linecap="square" stroke-miterlimit="10" stroke-width="0.8"/><path fill="none" stroke="#000000" paint-order="fill stroke markers" d=" M 2.200000000000017 40.2 L 2.200000000000017 70.1696551146029" stroke-linecap="square" stroke-miterlimit="10" stroke-width="0.8"/><path fill="none" stroke="#000000" paint-order="fill stroke markers" d=" M 47.15448267190436 66.15448267190433 L 73.10896534380868 51.169655114602904" stroke-linecap="square" stroke-miterlimit="10" stroke-width="0.8"/><path fill="none" stroke="#000000" paint-order="fill stroke markers" d=" M 73.10896534380868 21.200000000000017 L 73.10896534380868 51.169655114602904" stroke-linecap="square" stroke-miterlimit="10" stroke-width="0.8"/><path fill="none" stroke="#000000" paint-order="fill stroke markers" d=" M 43.13931022920579 21.200000000000017 L 73.10896534380868 21.200000000000017" stroke-linecap="square" stroke-miterlimit="10" stroke-width="0.8"/><path fill="none" stroke="#000000" paint-order="fill stroke markers" d=" M 32.169655114602904 40.2 L 43.13931022920579 21.200000000000017" stroke-linecap="square" stroke-miterlimit="10" stroke-width="0.8"/><path fill="none" stroke="#000000" paint-order="fill stroke markers" d=" M 47.15448267190436 66.15448267190433 L 62.13931022920576 92.10896534380868" stroke-linecap="square" stroke-miterlimit="10" stroke-width="0.8"/><path fill="none" stroke="#000000" paint-order="fill stroke markers" d=" M 51.169655114602904 111.10896534380866 L 62.13931022920576 92.10896534380868" stroke-linecap="square" stroke-miterlimit="10" stroke-width="0.8"/><path fill="none" stroke="#000000" paint-order="fill stroke markers" d=" M 21.200000000000017 111.10896534380866 L 51.169655114602904 111.10896534380866" stroke-linecap="square" stroke-miterlimit="10" stroke-width="0.8"/><path fill="none" stroke="#000000" paint-order="fill stroke markers" d=" M 21.200000000000017 81.13931022920578 L 21.200000000000017 111.10896534380866" stroke-linecap="square" stroke-miterlimit="10" stroke-width="0.8"/><path fill="none" stroke="#000000" paint-order="fill stroke markers" d=" M 73.10896534380868 51.169655114602904 L 92.10896534380868 62.13931022920579" stroke-linecap="square" stroke-miterlimit="10" stroke-width="0.8"/><path fill="none" stroke="#000000" paint-order="fill stroke markers" d=" M 92.10896534380868 62.13931022920579 L 92.10896534380868 92.10896534380868" stroke-linecap="square" stroke-miterlimit="10" stroke-width="0.8"/><path fill="none" stroke="#000000" paint-order="fill stroke markers" d=" M 62.13931022920576 92.10896534380868 L 92.10896534380868 92.10896534380868" stroke-linecap="square" stroke-miterlimit="10" stroke-width="0.8"/><path fill="none" stroke="#000000" paint-order="fill stroke markers" d=" M 73.10896534380868 21.200000000000017 L 103.07862045841155 21.200000000000017" stroke-linecap="square" stroke-miterlimit="10" stroke-width="0.8"/><path fill="none" stroke="#000000" paint-order="fill stroke markers" d=" M 103.07862045841155 21.200000000000017 L 118.063448015713 47.15448267190435" stroke-linecap="square" stroke-miterlimit="10" stroke-width="0.8"/><path fill="none" stroke="#000000" paint-order="fill stroke markers" d=" M 92.10896534380868 62.13931022920579 L 118.063448015713 47.15448267190435" stroke-linecap="square" stroke-miterlimit="10" stroke-width="0.8"/><path fill="none" stroke="#000000" paint-order="fill stroke markers" d=" M 118.063448015713 47.15448267190435 L 144.01793068761737 32.16965511460289" stroke-linecap="square" stroke-miterlimit="10" stroke-width="0.8"/><path fill="none" stroke="#000000" paint-order="fill stroke markers" d=" M 144.01793068761737 2.200000000000017 L 144.01793068761737 32.16965511460289" stroke-linecap="square" stroke-miterlimit="10" stroke-width="0.8"/><path fill="none" stroke="#000000" paint-order="fill stroke markers" d=" M 114.04827557301446 2.200000000000017 L 144.01793068761737 2.200000000000017" stroke-linecap="square" stroke-miterlimit="10" stroke-width="0.8"/><path fill="none" stroke="#000000" paint-order="fill stroke markers" d=" M 103.07862045841155 21.200000000000017 L 114.04827557301446 2.200000000000017" stroke-linecap="square" stroke-miterlimit="10" stroke-width="0.8"/><path fill="none" stroke="#000000" paint-order="fill stroke markers" d=" M 118.063448015713 47.15448267190435 L 133.04827557301445 73.10896534380868" stroke-linecap="square" stroke-miterlimit="10" stroke-width="0.8"/><path fill="none" stroke="#000000" paint-order="fill stroke markers" d=" M 122.07862045841155 92.10896534380868 L 133.04827557301445 73.10896534380868" stroke-linecap="square" stroke-miterlimit="10" stroke-width="0.8"/><path fill="none" stroke="#000000" paint-order="fill stroke markers" d=" M 92.10896534380868 92.10896534380868 L 122.07862045841155 92.10896534380868" stroke-linecap="square" stroke-miterlimit="10" stroke-width="0.8"/><path fill="none" stroke="#000000" paint-order="fill stroke markers" d=" M 144.01793068761737 32.16965511460289 L 163.01793068761737 43.13931022920579" stroke-linecap="square" stroke-miterlimit="10" stroke-width="0.8"/><path fill="none" stroke="#000000" paint-order="fill stroke markers" d=" M 163.01793068761737 43.13931022920579 L 163.01793068761737 73.10896534380868" stroke-linecap="square" stroke-miterlimit="10" stroke-width="0.8"/><path fill="none" stroke="#000000" paint-order="fill stroke markers" d=" M 133.04827557301445 73.10896534380868 L 163.01793068761737 73.10896534380868" stroke-linecap="square" stroke-miterlimit="10" stroke-width="0.8"/><path fill="none" stroke="#000000" paint-order="fill stroke markers" d=" M 51.169655114602904 111.10896534380866 L 66.15448267190436 137.063448015713" stroke-linecap="square" stroke-miterlimit="10" stroke-width="0.8"/><path fill="none" stroke="#000000" paint-order="fill stroke markers" d=" M 40.20000000000002 152.04827557301445 L 66.15448267190436 137.063448015713" stroke-linecap="square" stroke-miterlimit="10" stroke-width="0.8"/><path fill="none" stroke="#000000" paint-order="fill stroke markers" d=" M 21.200000000000017 141.07862045841154 L 40.20000000000002 152.04827557301445" stroke-linecap="square" stroke-miterlimit="10" stroke-width="0.8"/><path fill="none" stroke="#000000" paint-order="fill stroke markers" d=" M 21.200000000000017 111.10896534380866 L 21.200000000000017 141.07862045841154" stroke-linecap="square" stroke-miterlimit="10" stroke-width="0.8"/><path fill="none" stroke="#000000" paint-order="fill stroke markers" d=" M 66.15448267190436 137.063448015713 L 92.10896534380868 122.07862045841155" stroke-linecap="square" stroke-miterlimit="10" stroke-width="0.8"/><path fill="none" stroke="#000000" paint-order="fill stroke markers" d=" M 92.10896534380868 92.10896534380868 L 92.10896534380868 122.07862045841155" stroke-linecap="square" stroke-miterlimit="10" stroke-width="0.8"/><path fill="none" stroke="#000000" paint-order="fill stroke markers" d=" M 66.15448267190436 137.063448015713 L 81.13931022920576 163.01793068761734" stroke-linecap="square" stroke-miterlimit="10" stroke-width="0.8"/><path fill="none" stroke="#000000" paint-order="fill stroke markers" d=" M 70.1696551146029 182.01793068761734 L 81.13931022920576 163.01793068761734" stroke-linecap="square" stroke-miterlimit="10" stroke-width="0.8"/><path fill="none" stroke="#000000" paint-order="fill stroke markers" d=" M 40.20000000000002 182.01793068761734 L 70.1696551146029 182.01793068761734" stroke-linecap="square" stroke-miterlimit="10" stroke-width="0.8"/><path fill="none" stroke="#000000" paint-order="fill stroke markers" d=" M 40.20000000000002 152.04827557301445 L 40.20000000000002 182.01793068761734" stroke-linecap="square" stroke-miterlimit="10" stroke-width="0.8"/><path fill="none" stroke="#000000" paint-order="fill stroke markers" d=" M 92.10896534380868 122.07862045841155 L 111.10896534380869 133.04827557301445" stroke-linecap="square" stroke-miterlimit="10" stroke-width="0.8"/><path fill="none" stroke="#000000" paint-order="fill stroke markers" d=" M 111.10896534380869 133.04827557301445 L 111.10896534380869 163.01793068761734" stroke-linecap="square" stroke-miterlimit="10" stroke-width="0.8"/><path fill="none" stroke="#000000" paint-order="fill stroke markers" d=" M 81.13931022920576 163.01793068761734 L 111.10896534380869 163.01793068761734" stroke-linecap="square" stroke-miterlimit="10" stroke-width="0.8"/><path fill="none" stroke="#000000" paint-order="fill stroke markers" d=" M 122.07862045841155 92.10896534380868 L 137.063448015713 118.063448015713" stroke-linecap="square" stroke-miterlimit="10" stroke-width="0.8"/><path fill="none" stroke="#000000" paint-order="fill stroke markers" d=" M 111.10896534380869 133.04827557301445 L 137.063448015713 118.063448015713" stroke-linecap="square" stroke-miterlimit="10" stroke-width="0.8"/><path fill="none" stroke="#000000" paint-order="fill stroke markers" d=" M 137.063448015713 118.063448015713 L 163.01793068761737 103.07862045841155" stroke-linecap="square" stroke-miterlimit="10" stroke-width="0.8"/><path fill="none" stroke="#000000" paint-order="fill stroke markers" d=" M 163.01793068761737 73.10896534380868 L 163.01793068761737 103.07862045841155" stroke-linecap="square" stroke-miterlimit="10" stroke-width="0.8"/><path fill="none" stroke="#000000" paint-order="fill stroke markers" d=" M 137.063448015713 118.063448015713 L 152.04827557301445 144.01793068761734" stroke-linecap="square" stroke-miterlimit="10" stroke-width="0.8"/><path fill="none" stroke="#000000" paint-order="fill stroke markers" d=" M 141.07862045841154 163.01793068761734 L 152.04827557301445 144.01793068761734" stroke-linecap="square" stroke-miterlimit="10" stroke-width="0.8"/><path fill="none" stroke="#000000" paint-order="fill stroke markers" d=" M 111.10896534380869 163.01793068761734 L 141.07862045841154 163.01793068761734" stroke-linecap="square" stroke-miterlimit="10" stroke-width="0.8"/><path fill="none" stroke="#000000" paint-order="fill stroke markers" d=" M 163.01793068761737 103.07862045841155 L 182.01793068761737 114.04827557301446" stroke-linecap="square" stroke-miterlimit="10" stroke-width="0.8"/><path fill="none" stroke="#000000" paint-order="fill stroke markers" d=" M 182.01793068761737 114.04827557301446 L 182.01793068761737 144.01793068761734" stroke-linecap="square" stroke-miterlimit="10" stroke-width="0.8"/><path fill="none" stroke="#000000" paint-order="fill stroke markers" d=" M 152.04827557301445 144.01793068761734 L 182.01793068761737 144.01793068761734" stroke-linecap="square" stroke-miterlimit="10" stroke-width="0.8"/><path fill="#000000" stroke="none" paint-order="stroke fill markers" d=" M 4.300000000000017 40.2 A 2.1 2.1 0 1 0 4.299998950000105 40.20209999965"/><path fill="#000000" stroke="none" paint-order="stroke fill markers" d=" M 34.269655114602905 40.2 A 2.1 2.1 0 1 0 34.26965406460299 40.20209999965"/><path fill="#000000" stroke="none" paint-order="stroke fill markers" d=" M 49.25448267190436 66.15448267190433 A 2.1 2.1 0 1 0 49.254481621904446 66.15658267155433"/><path fill="#000000" stroke="none" paint-order="stroke fill markers" d=" M 23.30000000000002 81.13931022920578 A 2.1 2.1 0 1 0 23.299998950000106 81.14141022885578"/><path fill="#000000" stroke="none" paint-order="stroke fill markers" d=" M 4.300000000000017 70.1696551146029 A 2.1 2.1 0 1 0 4.299998950000105 70.1717551142529"/><path fill="#000000" stroke="none" paint-order="stroke fill markers" d=" M 75.20896534380867 51.169655114602904 A 2.1 2.1 0 1 0 75.20896429380876 51.1717551142529"/><path fill="#000000" stroke="none" paint-order="stroke fill markers" d=" M 75.20896534380867 21.200000000000017 A 2.1 2.1 0 1 0 75.20896429380876 21.202099999650017"/><path fill="#000000" stroke="none" paint-order="stroke fill markers" d=" M 45.23931022920579 21.200000000000017 A 2.1 2.1 0 1 0 45.239309179205875 21.202099999650017"/><path fill="#000000" stroke="none" paint-order="stroke fill markers" d=" M 64.23931022920576 92.10896534380868 A 2.1 2.1 0 1 0 64.23930917920585 92.11106534345868"/><path fill="#000000" stroke="none" paint-order="stroke fill markers" d=" M 53.269655114602905 111.10896534380866 A 2.1 2.1 0 1 0 53.26965406460299 111.11106534345866"/><path fill="#000000" stroke="none" paint-order="stroke fill markers" d=" M 23.30000000000002 111.10896534380866 A 2.1 2.1 0 1 0 23.299998950000106 111.11106534345866"/><path fill="#000000" stroke="none" paint-order="stroke fill markers" d=" M 94.20896534380867 62.13931022920579 A 2.1 2.1 0 1 0 94.20896429380876 62.14141022885579"/><path fill="#000000" stroke="none" paint-order="stroke fill markers" d=" M 94.20896534380867 92.10896534380868 A 2.1 2.1 0 1 0 94.20896429380876 92.11106534345868"/><path fill="#000000" stroke="none" paint-order="stroke fill markers" d=" M 105.17862045841154 21.200000000000017 A 2.1 2.1 0 1 0 105.17861940841163 21.202099999650017"/><path fill="#000000" stroke="none" paint-order="stroke fill markers" d=" M 120.163448015713 47.15448267190435 A 2.1 2.1 0 1 0 120.16344696571309 47.15658267155435"/><path fill="#000000" stroke="none" paint-order="stroke fill markers" d=" M 146.11793068761736 32.16965511460289 A 2.1 2.1 0 1 0 146.11792963761746 32.17175511425289"/><path fill="#000000" stroke="none" paint-order="stroke fill markers" d=" M 146.11793068761736 2.200000000000017 A 2.1 2.1 0 1 0 146.11792963761746 2.202099999650018"/><path fill="#000000" stroke="none" paint-order="stroke fill markers" d=" M 116.14827557301446 2.200000000000017 A 2.1 2.1 0 1 0 116.14827452301455 2.202099999650018"/><path fill="#000000" stroke="none" paint-order="stroke fill markers" d=" M 135.14827557301444 73.10896534380868 A 2.1 2.1 0 1 0 135.14827452301455 73.11106534345868"/><path fill="#000000" stroke="none" paint-order="stroke fill markers" d=" M 124.17862045841154 92.10896534380868 A 2.1 2.1 0 1 0 124.17861940841163 92.11106534345868"/><path fill="#000000" stroke="none" paint-order="stroke fill markers" d=" M 165.11793068761736 43.13931022920579 A 2.1 2.1 0 1 0 165.11792963761746 43.14141022885579"/><path fill="#000000" stroke="none" paint-order="stroke fill markers" d=" M 165.11793068761736 73.10896534380868 A 2.1 2.1 0 1 0 165.11792963761746 73.11106534345868"/><path fill="#000000" stroke="none" paint-order="stroke fill markers" d=" M 68.25448267190436 137.063448015713 A 2.1 2.1 0 1 0 68.25448162190445 137.065548015363"/><path fill="#000000" stroke="none" paint-order="stroke fill markers" d=" M 42.30000000000002 152.04827557301445 A 2.1 2.1 0 1 0 42.2999989500001 152.05037557266445"/><path fill="#000000" stroke="none" paint-order="stroke fill markers" d=" M 23.30000000000002 141.07862045841154 A 2.1 2.1 0 1 0 23.299998950000106 141.08072045806153"/><path fill="#000000" stroke="none" paint-order="stroke fill markers" d=" M 94.20896534380867 122.07862045841155 A 2.1 2.1 0 1 0 94.20896429380876 122.08072045806155"/><path fill="#000000" stroke="none" paint-order="stroke fill markers" d=" M 83.23931022920576 163.01793068761734 A 2.1 2.1 0 1 0 83.23930917920585 163.02003068726734"/><path fill="#000000" stroke="none" paint-order="stroke fill markers" d=" M 72.2696551146029 182.01793068761734 A 2.1 2.1 0 1 0 72.26965406460299 182.02003068726734"/><path fill="#000000" stroke="none" paint-order="stroke fill markers" d=" M 42.30000000000002 182.01793068761734 A 2.1 2.1 0 1 0 42.2999989500001 182.02003068726734"/><path fill="#000000" stroke="none" paint-order="stroke fill markers" d=" M 113.20896534380869 133.04827557301445 A 2.1 2.1 0 1 0 113.20896429380878 133.05037557266445"/><path fill="#000000" stroke="none" paint-order="stroke fill markers" d=" M 113.20896534380869 163.01793068761734 A 2.1 2.1 0 1 0 113.20896429380878 163.02003068726734"/><path fill="#000000" stroke="none" paint-order="stroke fill markers" d=" M 139.163448015713 118.063448015713 A 2.1 2.1 0 1 0 139.1634469657131 118.065548015363"/><path fill="#000000" stroke="none" paint-order="stroke fill markers" d=" M 165.11793068761736 103.07862045841155 A 2.1 2.1 0 1 0 165.11792963761746 103.08072045806155"/><path fill="#000000" stroke="none" paint-order="stroke fill markers" d=" M 154.14827557301444 144.01793068761734 A 2.1 2.1 0 1 0 154.14827452301455 144.02003068726734"/><path fill="#000000" stroke="none" paint-order="stroke fill markers" d=" M 143.17862045841153 163.01793068761734 A 2.1 2.1 0 1 0 143.17861940841163 163.02003068726734"/><path fill="#000000" stroke="none" paint-order="stroke fill markers" d=" M 184.11793068761736 114.04827557301446 A 2.1 2.1 0 1 0 184.11792963761746 114.05037557266446"/><path fill="#000000" stroke="none" paint-order="stroke fill markers" d=" M 184.11793068761736 144.01793068761734 A 2.1 2.1 0 1 0 184.11792963761746 144.02003068726734"/><text fill="none" stroke="rgb(255,255,255)" font-family="Helvetica,Arial" font-size="15.200000000000001px" font-style="normal" font-weight="normal" text-decoration="normal" x="21.200000000000017" y="64.596" text-anchor="middle" dominant-baseline="alphabetic" stroke-opacity="0" stroke-linecap="square" stroke-miterlimit="10" stroke-width="0.8">(1,1)</text><text fill="#000000" stroke="none" font-family="Helvetica,Arial" font-size="15.200000000000001px" font-style="normal" font-weight="normal" text-decoration="normal" x="21.200000000000017" y="64.596" text-anchor="middle" dominant-baseline="alphabetic">(1,1)</text><text fill="none" stroke="rgb(255,255,255)" font-family="Helvetica,Arial" font-size="15.200000000000001px" font-style="normal" font-weight="normal" text-decoration="normal" x="92.10896534380868" y="45.596000000000004" text-anchor="middle" dominant-baseline="alphabetic" stroke-opacity="0" stroke-linecap="square" stroke-miterlimit="10" stroke-width="0.8">(2,1)</text><text fill="#000000" stroke="none" font-family="Helvetica,Arial" font-size="15.200000000000001px" font-style="normal" font-weight="normal" text-decoration="normal" x="92.10896534380868" y="45.596000000000004" text-anchor="middle" dominant-baseline="alphabetic">(2,1)</text><text fill="none" stroke="rgb(255,255,255)" font-family="Helvetica,Arial" font-size="15.200000000000001px" font-style="normal" font-weight="normal" text-decoration="normal" x="40.20000000000002" y="135.50496534380864" text-anchor="middle" dominant-baseline="alphabetic" stroke-opacity="0" stroke-linecap="square" stroke-miterlimit="10" stroke-width="0.8">(1,2)</text><text fill="#000000" stroke="none" font-family="Helvetica,Arial" font-size="15.200000000000001px" font-style="normal" font-weight="normal" text-decoration="normal" x="40.20000000000002" y="135.50496534380864" text-anchor="middle" dominant-baseline="alphabetic">(1,2)</text><text fill="none" stroke="rgb(255,255,255)" font-family="Helvetica,Arial" font-size="15.200000000000001px" font-style="normal" font-weight="normal" text-decoration="normal" x="111.10896534380869" y="116.50496534380866" text-anchor="middle" dominant-baseline="alphabetic" stroke-opacity="0" stroke-linecap="square" stroke-miterlimit="10" stroke-width="0.8">(2,2)</text><text fill="#000000" stroke="none" font-family="Helvetica,Arial" font-size="15.200000000000001px" font-style="normal" font-weight="normal" text-decoration="normal" x="111.10896534380869" y="116.50496534380866" text-anchor="middle" dominant-baseline="alphabetic">(2,2)</text></g></svg>