<svg version="1.1" xmlns="http://www.w3.org/2000/svg" xmlns:xlink="http://www.w3.org/1999/xlink" width="124.4" height="120"><defs/><g><rect fill="rgb(255,255,255)" stroke="none" x="0" y="0" width="124.4" height="120" fill-opacity="0"/><path fill="none" stroke="#000000" paint-order="fill stroke markers" d=" M 42.1 48.55299461620749 L 62.1 37.00598923241497" stroke-linecap="square" stroke-miterlimit="10" stroke-width="0.8"/><path fill="none" stroke="#000000" paint-order="fill stroke markers" d=" M 82.1 48.55299461620749 L 62.1 37.00598923241497" stroke-linecap="square" stroke-miterlimit="10" stroke-width="0.8"/><path fill="none" stroke="#000000" paint-order="fill stroke markers" d=" M 82.1 48.55299461620749 L 82.1 71.6470053837925" stroke-linecap="square" stroke-miterlimit="10" stroke-width="0.8"/><path fill="none" stroke="#000000" paint-order="fill stroke markers" d=" M 62.1 83.19401076758501 L 82.1 71.6470053837925" stroke-linecap="square" stroke-miterlimit="10" stroke-width="0.8"/><path fill="none" stroke="#000000" paint-order="fill stroke markers" d=" M 62.1 83.19401076758501 L 42.1 71.6470053837925" stroke-linecap="square" stroke-miterlimit="10" stroke-width="0.8"/><path fill="none" stroke="#000000" paint-order="fill stroke markers" d=" M 42.1 48.55299461620749 L 42.1 71.6470053837925" stroke-linecap="square" stroke-miterlimit="10" stroke-width="0.8"/><path fill="none" stroke="#000000" paint-order="fill stroke markers" d=" M 22.1 13.911978464829943 L 42.1 2.3649730810374265" stroke-linecap="square" stroke-miterlimit="10" stroke-width="0.8"/><path fill="none" stroke="#000000" paint-order="fill stroke markers" d=" M 62.1 13.911978464829943 L 42.1 2.3649730810374265" stroke-linecap="square" stroke-miterlimit="10" stroke-width="0.8"/><path fill="none" stroke="#000000" paint-order="fill stroke markers" d=" M 62.1 13.911978464829943 L 62.1 37.00598923241497" stroke-linecap="square" stroke-miterlimit="10" stroke-width="0.8"/><path fill="none" stroke="#000000" paint-order="fill stroke markers" d=" M 42.1 48.55299461620749 L 22.1 37.00598923241497" stroke-linecap="square" stroke-miterlimit="10" stroke-width="0.8"/><path fill="none" stroke="#000000" paint-order="fill stroke markers" d=" M 22.1 13.911978464829943 L 22.1 37.00598923241497" stroke-linecap="square" stroke-miterlimit="10" stroke-width="0.8"/><path fill="none" stroke="#000000" paint-order="fill stroke markers" d=" M 62.1 13.911978464829943 L 82.1 2.3649730810374265" stroke-linecap="square" stroke-miterlimit="10" stroke-width="0.8"/><path fill="none" stroke="#000000" paint-order="fill stroke markers" d=" M 102.1 13.911978464829943 L 82.1 2.3649730810374265" stroke-linecap="square" stroke-miterlimit="10" stroke-width="0.8"/><path fill="none" stroke="#000000" paint-order="fill stroke markers" d=" M 102.1 13.911978464829943 L 102.1 37.00598923241497" stroke-linecap="square" stroke-miterlimit="10" stroke-width="0.8"/><path fill="none" stroke="#000000" paint-order="fill stroke markers" d=" M 82.1 48.55299461620749 L 102.1 37.00598923241497" stroke-linecap="square" stroke-miterlimit="10" stroke-width="0.8"/><path fill="none" stroke="#000000" paint-order="fill stroke markers" d=" M 2.1000000000000014 48.55299461620749 L 22.1 37.00598923241497" stroke-linecap="square" stroke-miterlimit="10" stroke-width="0.8"/><path fill="none" stroke="#000000" paint-order="fill stroke markers" d=" M 22.1 83.19401076758501 L 42.1 71.6470053837925" stroke-linecap="square" stroke-miterlimit="10" stroke-width="0.8"/><path fill="none" stroke="#000000" paint-order="fill stroke markers" d=" M 22.1 83.19401076758501 L 2.1000000000000014 71.6470053837925" stroke-linecap="square" stroke-miterlimit="10" stroke-width="0.8"/><path fill="none" stroke="#000000" paint-order="fill stroke markers" d=" M 2.1000000000000014 48.55299461620749 L 2.1000000000000014 71.6470053837925" stroke-linecap="square" stroke-miterlimit="10" stroke-width="0.8"/><path fill="none" stroke="#000000" paint-order="fill stroke markers" d=" M 122.1 48.55299461620749 L 102.1 37.00598923241497" stroke-linecap="square" stroke-miterlimit="10" stroke-width="0.8"/><path fill="none" stroke="#000000" paint-order="fill stroke markers" d=" M 122.1 48.55299461620749 L 122.1 71.6470053837925" stroke-linecap="square" stroke-miterlimit="10" stroke-width="0.8"/><path fill="none" stroke="#000000" paint-order="fill stroke markers" d=" M 102.1 83.19401076758501 L 122.1 71.6470053837925" stroke-linecap="square" stroke-miterlimit="10" stroke-width="0.8"/><path fill="none" stroke="#000000" paint-order="fill stroke markers" d=" M 102.1 83.19401076758501 L 82.1 71.6470053837925" stroke-linecap="square" stroke-miterlimit="10" stroke-width="0.8"/><path fill="none" stroke="#000000" paint-order="fill stroke markers" d=" M 62.1 83.19401076758501 L 62.1 106.28802153517006" stroke-linecap="square" stroke-miterlimit="10" stroke-width="0.8"/><path fill="none" stroke="#000000" paint-order="fill stroke markers" d=" M 42.1 117.83502691896257 L 62.1 106.28802153517006" stroke-linecap="square" stroke-miterlimit="10" stroke-width="0.8"/><path fill="none" stroke="#000000" paint-order="fill stroke markers" d=" M 42.1 117.83502691896257 L 22.1 106.28802153517006" stroke-linecap="square" stroke-miterlimit="10" stroke-width="0.8"/><path fill="none" stroke="#000000" paint-order="fill stroke markers" d=" M 22.1 83.19401076758501 L 22.1 106.28802153517006" stroke-linecap="square" stroke-miterlimit="10" stroke-width="0.8"/><path fill="none" stroke="#000000" paint-order="fill stroke markers" d=" M 102.1 83.19401076758501 L 102.1 106.28802153517006" stroke-linecap="square" stroke-miterlimit="10" stroke-width="0.8"/><path fill="none" stroke="#000000" paint-order="fill stroke markers" d=" M 82.1 117.83502691896257 L 102.1 106.28802153517006" stroke-linecap="square" stroke-miterlimit="10" stroke-width="0.8"/><path fill="none" stroke="#000000" paint-order="fill stroke markers" d=" M 82.1 117.83502691896257 L 62.1 106.28802153517006" stroke-linecap="square" stroke-miterlimit="10" stroke-width="0.8"/><path fill="#000000" stroke="none" paint-order="stroke fill markers" d=" M 44.2 48.55299461620749 A 2.1 2.1 0 1 0 44.19999895000009 48.55509461585749"/><path fill="#000000" stroke="none" paint-order="stroke fill markers" d=" M 64.2 37.00598923241497 A 2.1 2.1 0 1 0 64.1999989500001 37.00808923206497"/><path fill="#000000" stroke="none" paint-order="stroke fill markers" d=" M 84.19999999999999 48.55299461620749 A 2.1 2.1 0 1 0 84.19999895000008 48.55509461585749"/><path fill="#000000" stroke="none" paint-order="stroke fill markers" d=" M 84.19999999999999 71.6470053837925 A 2.1 2.1 0 1 0 84.19999895000008 71.6491053834425"/><path fill="#000000" stroke="none" paint-order="stroke fill markers" d=" M 64.2 83.19401076758501 A 2.1 2.1 0 1 0 64.1999989500001 83.19611076723501"/><path fill="#000000" stroke="none" paint-order="stroke fill markers" d=" M 44.2 71.6470053837925 A 2.1 2.1 0 1 0 44.19999895000009 71.6491053834425"/><path fill="#000000" stroke="none" paint-order="stroke fill markers" d=" M 24.200000000000003 13.911978464829943 A 2.1 2.1 0 1 0 24.19999895000009 13.914078464479944"/><path fill="#000000" stroke="none" paint-order="stroke fill markers" d=" M 44.2 2.3649730810374265 A 2.1 2.1 0 1 0 44.19999895000009 2.3670730806874274"/><path fill="#000000" stroke="none" paint-order="stroke fill markers" d=" M 64.2 13.911978464829943 A 2.1 2.1 0 1 0 64.1999989500001 13.914078464479944"/><path fill="#000000" stroke="none" paint-order="stroke fill markers" d=" M 24.200000000000003 37.00598923241497 A 2.1 2.1 0 1 0 24.19999895000009 37.00808923206497"/><path fill="#000000" stroke="none" paint-order="stroke fill markers" d=" M 84.19999999999999 2.3649730810374265 A 2.1 2.1 0 1 0 84.19999895000008 2.3670730806874274"/><path fill="#000000" stroke="none" paint-order="stroke fill markers" d=" M 104.19999999999999 13.911978464829943 A 2.1 2.1 0 1 0 104.19999895000008 13.914078464479944"/><path fill="#000000" stroke="none" paint-order="stroke fill markers" d=" M 104.19999999999999 37.00598923241497 A 2.1 2.1 0 1 0 104.19999895000008 37.00808923206497"/><path fill="#000000" stroke="none" paint-order="stroke fill markers" d=" M 4.200000000000001 48.55299461620749 A 2.1 2.1 0 1 0 4.199998950000089 48.55509461585749"/><path fill="#000000" stroke="none" paint-order="stroke fill markers" d=" M 24.200000000000003 83.19401076758501 A 2.1 2.1 0 1 0 24.19999895000009 83.19611076723501"/><path fill="#000000" stroke="none" paint-order="stroke fill markers" d=" M 4.200000000000001 71.6470053837925 A 2.1 2.1 0 1 0 4.199998950000089 71.6491053834425"/><path fill="#000000" stroke="none" paint-order="stroke fill markers" d=" M 124.19999999999999 48.55299461620749 A 2.1 2.1 0 1 0 124.19999895000008 48.55509461585749"/><path fill="#000000" stroke="none" paint-order="stroke fill markers" d=" M 124.19999999999999 71.6470053837925 A 2.1 2.1 0 1 0 124.19999895000008 71.6491053834425"/><path fill="#000000" stroke="none" paint-order="stroke fill markers" d=" M 104.19999999999999 83.19401076758501 A 2.1 2.1 0 1 0 104.19999895000008 83.19611076723501"/><path fill="#000000" stroke="none" paint-order="stroke fill markers" d=" M 64.2 106.28802153517006 A 2.1 2.1 0 1 0 64.1999989500001 106.29012153482006"/><path fill="#000000" stroke="none" paint-order="stroke fill markers" d=" M 44.2 117.83502691896257 A 2.1 2.1 0 1 0 44.19999895000009 117.83712691861257"/><path fill="#000000" stroke="none" paint-order="stroke fill markers" d=" M 24.200000000000003 106.28802153517006 A 2.1 2.1 0 1 0 24.19999895000009 106.29012153482006"/><path fill="#000000" stroke="none" paint-order="stroke fill markers" d=" M 104.19999999999999 106.28802153517006 A 2.1 2.1 0 1 0 104.19999895000008 106.29012153482006"/><path fill="#000000" stroke="none" paint-order="stroke fill markers" d=" M 84.19999999999999 117.83502691896257 A 2.1 2.1 0 1 0 84.19999895000008 117.83712691861257"/><text fill="none" stroke="rgb(255,255,255)" font-family="Helvetica,Arial" font-size="16px" font-style="normal" font-weight="normal" text-decoration="normal" x="42.1" y="31.13898384862246" text-anchor="middle" dominant-baseline="alphabetic" stroke-opacity="0" stroke-linecap="square" stroke-miterlimit="10" stroke-width="0.8">(6,6)</text><text fill="#000000" stroke="none" font-family="Helvetica,Arial" font-size="16px" font-style="normal" font-weight="normal" text-decoration="normal" x="42.1" y="31.13898384862246" text-anchor="middle" dominant-baseline="alphabetic">(6,6)</text><text fill="none" stroke="rgb(255,255,255)" font-family="Helvetica,Arial" font-size="16px" font-style="normal" font-weight="normal" text-decoration="normal" x="82.1" y="31.13898384862246" text-anchor="middle" dominant-baseline="alphabetic" stroke-opacity="0" stroke-linecap="square" stroke-miterlimit="10" stroke-width="0.8">(8,6)</text><text fill="#000000" stroke="none" font-family="Helvetica,Arial" font-size="16px" font-style="normal" font-weight="normal" text-decoration="normal" x="82.1" y="31.13898384862246" text-anchor="middle" dominant-baseline="alphabetic">(8,6)</text><text fill="none" stroke="rgb(255,255,255)" font-family="Helvetica,Arial" font-size="16px" font-style="normal" font-weight="normal" text-decoration="normal" x="22.1" y="65.78" text-anchor="middle" dominant-baseline="alphabetic" stroke-opacity="0" stroke-linecap="square" stroke-miterlimit="10" stroke-width="0.8">(5,9)</text><text fill="#000000" stroke="none" font-family="Helvetica,Arial" font-size="16px" font-style="normal" font-weight="normal" text-decoration="normal" x="22.1" y="65.78" text-anchor="middle" dominant-baseline="alphabetic">(5,9)</text><text fill="none" stroke="rgb(255,255,255)" font-family="Helvetica,Arial" font-size="16px" font-style="normal" font-weight="normal" text-decoration="normal" x="62.1" y="65.78" text-anchor="middle" dominant-baseline="alphabetic" stroke-opacity="0" stroke-linecap="square" stroke-miterlimit="10" stroke-width="0.8">(7,9)</text><text fill="#000000" stroke="none" font-family="Helvetica,Arial" font-size="16px" font-style="normal" font-weight="normal" text-decoration="normal" x="62.1" y="65.78" text-anchor="middle" dominant-baseline="alphabetic">(7,9)</text><text fill="none" stroke="rgb(255,255,255)" font-family="Helvetica,Arial" font-size="16px" font-style="normal" font-weight="normal" text-decoration="normal" x="102.1" y="65.78" text-anchor="middle" dominant-baseline="alphabetic" stroke-opacity="0" stroke-linecap="square" stroke-miterlimit="10" stroke-width="0.8">(9,9)</text><text fill="#000000" stroke="none" font-family="Helvetica,Arial" font-size="16px" font-style="normal" font-weight="normal" text-decoration="normal" x="102.1" y="65.78" text-anchor="middle" dominant-baseline="alphabetic">(9,9)</text><text fill="none" stroke="rgb(255,255,255)" font-family="Helvetica,Arial" font-size="16px" font-style="normal" font-weight="normal" text-decoration="normal" x="42.1" y="100.42101615137756" text-anchor="middle" dominant-baseline="alphabetic" stroke-opacity="0" stroke-linecap="square" stroke-miterlimit="10" stroke-width="0.8">(6,12)</text><text fill="#000000" stroke="none" font-family="Helvetica,Arial" font-size="16px" font-style="normal" font-weight="normal" text-decoration="normal" x="42.1" y="100.42101615137756" text-anchor="middle" dominant-baseline="alphabetic">(6,12)</text><text fill="none" stroke="rgb(255,255,255)" font-family="Helvetica,Arial" font-size="16px" font-style="normal" font-weight="normal" text-decoration="normal" x="82.1" y="100.42101615137756" text-anchor="middle" dominant-baseline="alphabetic" stroke-opacity="0" stroke-linecap="square" stroke-miterlimit="10" stroke-width="0.8">(8,12)</text><text fill="#000000" stroke="none" font-family="Helvetica,Arial" font-size="16px" font-style="normal" font-weight="normal" text-decoration="normal" x="82.1" y="100.42101615137756" text-anchor="middle" dominant-baseline="alphabetic">(8,12)</text></g></svg>