<svg version="1.1" xmlns="http://www.w3.org/2000/svg" xmlns:xlink="http://www.w3.org/1999/xlink" width="114" height="114"><defs/><g><rect fill="rgb(255,255,255)" stroke="none" x="0" y="0" width="114" height="114" fill-opacity="0"/><path fill="none" stroke="#000000" paint-order="fill stroke markers" d=" M 19.5 19.5 L 19.5 57.5" stroke-linecap="round" stroke-miterlimit="10" stroke-width="3"/><path fill="none" stroke="#000000" paint-order="fill stroke markers" d=" M 19.5 57.5 L 19.5 95.5" stroke-linecap="round" stroke-miterlimit="10" stroke-width="3"/><path fill="none" stroke="#000000" paint-order="fill stroke markers" d=" M 19.5 19.5 L 57.5 19.5" stroke-linecap="round" stroke-miterlimit="10" stroke-width="3"/><path fill="none" stroke="#000000" paint-order="fill stroke markers" d=" M 57.5 19.5 L 95.5 19.5" stroke-linecap="round" stroke-miterlimit="10" stroke-width="3"/><path fill="none" stroke="#000000" paint-order="fill stroke markers" d=" M 95.5 19.5 L 95.5 57.5" stroke-linecap="round" stroke-miterlimit="10" stroke-width="3"/><path fill="none" stroke="#000000" paint-order="fill stroke markers" d=" M 95.5 57.5 L 95.5 95.5" stroke-linecap="round" stroke-miterlimit="10" stroke-width="3"/><path fill="none" stroke="#000000" paint-order="fill stroke markers" d=" M 19.5 95.5 L 57.5 95.5" stroke-linecap="round" stroke-miterlimit="10" stroke-width="3"/><path fill="none" stroke="#000000" paint-order="fill stroke markers" d=" M 57.5 95.5 L 95.5 95.5" stroke-linecap="round" stroke-miterlimit="10" stroke-width="3"/><path fill="none" stroke="#000000" paint-order="fill stroke markers" d=" M 95.5 19.5 L 133.5 19.5" stroke-linecap="round" stroke-miterlimit="10" stroke-width="3"/><path fill="none" stroke="#000000" paint-order="fill stroke markers" d=" M 95.5 95.5 L 133.5 95.5" stroke-linecap="round" stroke-miterlimit="10" stroke-width="3"/><path fill="none" stroke="#000000" paint-order="fill stroke markers" d=" M 57.5 -18.5 L 57.5 19.5" stroke-linecap="round" stroke-miterlimit="10" stroke-width="3"/><path fill="none" stroke="#000000" paint-order="fill stroke markers" d=" M -18.5 19.5 L 19.5 19.5" stroke-linecap="round" stroke-miterlimit="10" stroke-width="3"/><path fill="none" stroke="#000000" paint-order="fill stroke markers" d=" M -18.5 95.5 L 19.5 95.5" stroke-linecap="round" stroke-miterlimit="10" stroke-width="3"/><path fill="none" stroke="#000000" paint-order="fill stroke markers" d=" M 57.5 95.5 L 57.5 133.5" stroke-linecap="round" stroke-miterlimit="10" stroke-width="3"/><path fill="none" stroke="#444444" paint-order="fill stroke markers" d=" M 57.5 19.5 L 57.5 57.5" stroke-linecap="square" stroke-miterlimit="10" stroke-dasharray="2.28,5.32"/><path fill="none" stroke="#444444" paint-order="fill stroke markers" d=" M 57.5 57.5 L 57.5 95.5" stroke-linecap="square" stroke-miterlimit="10" stroke-dasharray="2.28,5.32"/><path fill="none" stroke="#444444" paint-order="fill stroke markers" d=" M -18.5 57.5 L 19.5 57.5" stroke-linecap="square" stroke-miterlimit="10" stroke-dasharray="2.28,5.32"/><path fill="none" stroke="#444444" paint-order="fill stroke markers" d=" M 19.5 57.5 L 57.5 57.5" stroke-linecap="square" stroke-miterlimit="10" stroke-dasharray="2.28,5.32"/><path fill="none" stroke="#444444" paint-order="fill stroke markers" d=" M 57.5 57.5 L 95.5 57.5" stroke-linecap="square" stroke-miterlimit="10" stroke-dasharray="2.28,5.32"/><path fill="none" stroke="#444444" paint-order="fill stroke markers" d=" M 95.5 57.5 L 133.5 57.5" stroke-linecap="square" stroke-miterlimit="10" stroke-dasharray="2.28,5.32"/><path fill="#000000" stroke="none" paint-order="stroke fill markers" d=" M 21.6 19.5 A 2.1 2.1 0 1 0 21.59999895000009 19.50209999965"/><path fill="#000000" stroke="none" paint-order="stroke fill markers" d=" M 59.6 19.5 A 2.1 2.1 0 1 0 59.599998950000085 19.50209999965"/><path fill="#000000" stroke="none" paint-order="stroke fill markers" d=" M 59.6 57.5 A 2.1 2.1 0 1 0 59.599998950000085 57.50209999965"/><path fill="#000000" stroke="none" paint-order="stroke fill markers" d=" M 21.6 57.5 A 2.1 2.1 0 1 0 21.59999895000009 57.50209999965"/><path fill="#000000" stroke="none" paint-order="stroke fill markers" d=" M 97.6 19.5 A 2.1 2.1 0 1 0 97.59999895000009 19.50209999965"/><path fill="#000000" stroke="none" paint-order="stroke fill markers" d=" M 97.6 57.5 A 2.1 2.1 0 1 0 97.59999895000009 57.50209999965"/><path fill="#000000" stroke="none" paint-order="stroke fill markers" d=" M 59.6 95.5 A 2.1 2.1 0 1 0 59.599998950000085 95.50209999965"/><path fill="#000000" stroke="none" paint-order="stroke fill markers" d=" M 21.6 95.5 A 2.1 2.1 0 1 0 21.59999895000009 95.50209999965"/><path fill="#000000" stroke="none" paint-order="stroke fill markers" d=" M 97.6 95.5 A 2.1 2.1 0 1 0 97.59999895000009 95.50209999965"/><path fill="#ffffff" stroke="#000000" paint-order="fill stroke markers" d=" M 103.86 19.5 A 8.36 8.36 0 1 1 103.85999582000035 19.49164000139333" stroke-miterlimit="10"/><path fill="#ffffff" stroke="#000000" paint-order="fill stroke markers" d=" M 65.86 57.5 A 8.36 8.36 0 1 1 65.85999582000035 57.49164000139333" stroke-miterlimit="10"/><path fill="#ffffff" stroke="#000000" paint-order="fill stroke markers" d=" M 103.86 57.5 A 8.36 8.36 0 1 1 103.85999582000035 57.49164000139333" stroke-miterlimit="10"/><path fill="#ffffff" stroke="#000000" paint-order="fill stroke markers" d=" M 103.86 95.5 A 8.36 8.36 0 1 1 103.85999582000035 95.49164000139334" stroke-miterlimit="10"/><path fill="#ffffff" stroke="#000000" paint-order="fill stroke markers" d=" M 46.86 95.5 A 8.36 8.36 0 1 1 46.85999582000035 95.49164000139334" stroke-miterlimit="10"/><path fill="#ffffff" stroke="#000000" paint-order="fill stroke markers" d=" M 84.86 95.5 A 8.36 8.36 0 1 1 84.85999582000035 95.49164000139334" stroke-miterlimit="10"/><text fill="none" stroke="rgb(255,255,255)" font-family="Helvetica,Arial" font-size="15.200000000000001px" font-style="normal" font-weight="normal" text-decoration="normal" x="95.5" y="24.896" text-anchor="middle" dominant-baseline="alphabetic" stroke-opacity="0" stroke-miterlimit="10">1</text><text fill="#000000" stroke="none" font-family="Helvetica,Arial" font-size="15.200000000000001px" font-style="normal" font-weight="normal" text-decoration="normal" x="95.5" y="24.896" text-anchor="middle" dominant-baseline="alphabetic">1</text><text fill="none" stroke="rgb(255,255,255)" font-family="Helvetica,Arial" font-size="15.200000000000001px" font-style="normal" font-weight="normal" text-decoration="normal" x="57.5" y="62.896" text-anchor="middle" dominant-baseline="alphabetic" stroke-opacity="0" stroke-miterlimit="10">0</text><text fill="#000000" stroke="none" font-family="Helvetica,Arial" font-size="15.200000000000001px" font-style="normal" font-weight="normal" text-decoration="normal" x="57.5" y="62.896" text-anchor="middle" dominant-baseline="alphabetic">0</text><text fill="none" stroke="rgb(255,255,255)" font-family="Helvetica,Arial" font-size="15.200000000000001px" font-style="normal" font-weight="normal" text-decoration="normal" x="95.5" y="62.896" text-anchor="middle" dominant-baseline="alphabetic" stroke-opacity="0" stroke-miterlimit="10">3</text><text fill="#000000" stroke="none" font-family="Helvetica,Arial" font-size="15.200000000000001px" font-style="normal" font-weight="normal" text-decoration="normal" x="95.5" y="62.896" text-anchor="middle" dominant-baseline="alphabetic">3</text><text fill="none" stroke="rgb(255,255,255)" font-family="Helvetica,Arial" font-size="15.200000000000001px" font-style="normal" font-weight="normal" text-decoration="normal" x="95.5" y="100.896" text-anchor="middle" dominant-baseline="alphabetic" stroke-opacity="0" stroke-miterlimit="10">2</text><text fill="#000000" stroke="none" font-family="Helvetica,Arial" font-size="15.200000000000001px" font-style="normal" font-weight="normal" text-decoration="normal" x="95.5" y="100.896" text-anchor="middle" dominant-baseline="alphabetic">2</text><text fill="none" stroke="rgb(255,255,255)" font-family="Helvetica,Arial" font-size="15.200000000000001px" font-style="normal" font-weight="normal" text-decoration="normal" x="38.5" y="100.896" text-anchor="middle" dominant-baseline="alphabetic" stroke-opacity="0" stroke-miterlimit="10">4</text><text fill="#000000" stroke="none" font-family="Helvetica,Arial" font-size="15.200000000000001px" font-style="normal" font-weight="normal" text-decoration="normal" x="38.5" y="100.896" text-anchor="middle" dominant-baseline="alphabetic">4</text><text fill="none" stroke="rgb(255,255,255)" font-family="Helvetica,Arial" font-size="15.200000000000001px" font-style="normal" font-weight="normal" text-decoration="normal" x="76.5" y="100.896" text-anchor="middle" dominant-baseline="alphabetic" stroke-opacity="0" stroke-miterlimit="10">5</text><text fill="#000000" stroke="none" font-family="Helvetica,Arial" font-size="15.200000000000001px" font-style="normal" font-weight="normal" text-decoration="normal" x="76.5" y="100.896" text-anchor="middle" dominant-baseline="alphabetic">5</text></g></svg>