<svg version="1.1" xmlns="http://www.w3.org/2000/svg" xmlns:xlink="http://www.w3.org/1999/xlink" width="154.4" height="154.4"><defs/><g><rect fill="rgb(255,255,255)" stroke="none" x="0" y="0" width="154.4" height="154.4" fill-opacity="0"/><path fill="none" stroke="#000000" paint-order="fill stroke markers" d=" M 52.3 2.299999999999997 L 77.3 2.299999999999997" stroke-linecap="square" stroke-miterlimit="10" stroke-width="0.8"/><path fill="none" stroke="#000000" paint-order="fill stroke markers" d=" M 102.3 2.299999999999997 L 77.3 2.299999999999997" stroke-linecap="square" stroke-miterlimit="10" stroke-width="0.8"/><path fill="none" stroke="#000000" paint-order="fill stroke markers" d=" M 102.3 2.299999999999997 L 102.3 52.3" stroke-linecap="square" stroke-miterlimit="10" stroke-width="0.8"/><path fill="none" stroke="#000000" paint-order="fill stroke markers" d=" M 77.3 52.3 L 102.3 52.3" stroke-linecap="square" stroke-miterlimit="10" stroke-width="0.8"/><path fill="none" stroke="#000000" paint-order="fill stroke markers" d=" M 77.3 52.3 L 52.3 52.3" stroke-linecap="square" stroke-miterlimit="10" stroke-width="0.8"/><path fill="none" stroke="#000000" paint-order="fill stroke markers" d=" M 52.3 2.299999999999997 L 52.3 52.3" stroke-linecap="square" stroke-miterlimit="10" stroke-width="0.8"/><path fill="none" stroke="#000000" paint-order="fill stroke markers" d=" M 27.299999999999997 52.3 L 52.3 52.3" stroke-linecap="square" stroke-miterlimit="10" stroke-width="0.8"/><path fill="none" stroke="#000000" paint-order="fill stroke markers" d=" M 77.3 52.3 L 77.3 102.3" stroke-linecap="square" stroke-miterlimit="10" stroke-width="0.8"/><path fill="none" stroke="#000000" paint-order="fill stroke markers" d=" M 52.3 102.3 L 77.3 102.3" stroke-linecap="square" stroke-miterlimit="10" stroke-width="0.8"/><path fill="none" stroke="#000000" paint-order="fill stroke markers" d=" M 52.3 102.3 L 27.299999999999997 102.3" stroke-linecap="square" stroke-miterlimit="10" stroke-width="0.8"/><path fill="none" stroke="#000000" paint-order="fill stroke markers" d=" M 27.299999999999997 52.3 L 27.299999999999997 102.3" stroke-linecap="square" stroke-miterlimit="10" stroke-width="0.8"/><path fill="none" stroke="#000000" paint-order="fill stroke markers" d=" M 127.3 52.3 L 102.3 52.3" stroke-linecap="square" stroke-miterlimit="10" stroke-width="0.8"/><path fill="none" stroke="#000000" paint-order="fill stroke markers" d=" M 127.3 52.3 L 127.3 102.3" stroke-linecap="square" stroke-miterlimit="10" stroke-width="0.8"/><path fill="none" stroke="#000000" paint-order="fill stroke markers" d=" M 102.3 102.3 L 127.3 102.3" stroke-linecap="square" stroke-miterlimit="10" stroke-width="0.8"/><path fill="none" stroke="#000000" paint-order="fill stroke markers" d=" M 102.3 102.3 L 77.3 102.3" stroke-linecap="square" stroke-miterlimit="10" stroke-width="0.8"/><path fill="none" stroke="#000000" paint-order="fill stroke markers" d=" M 2.299999999999997 102.3 L 27.299999999999997 102.3" stroke-linecap="square" stroke-miterlimit="10" stroke-width="0.8"/><path fill="none" stroke="#000000" paint-order="fill stroke markers" d=" M 52.3 102.3 L 52.3 152.3" stroke-linecap="square" stroke-miterlimit="10" stroke-width="0.8"/><path fill="none" stroke="#000000" paint-order="fill stroke markers" d=" M 27.299999999999997 152.3 L 52.3 152.3" stroke-linecap="square" stroke-miterlimit="10" stroke-width="0.8"/><path fill="none" stroke="#000000" paint-order="fill stroke markers" d=" M 27.299999999999997 152.3 L 2.299999999999997 152.3" stroke-linecap="square" stroke-miterlimit="10" stroke-width="0.8"/><path fill="none" stroke="#000000" paint-order="fill stroke markers" d=" M 2.299999999999997 102.3 L 2.299999999999997 152.3" stroke-linecap="square" stroke-miterlimit="10" stroke-width="0.8"/><path fill="none" stroke="#000000" paint-order="fill stroke markers" d=" M 102.3 102.3 L 102.3 152.3" stroke-linecap="square" stroke-miterlimit="10" stroke-width="0.8"/><path fill="none" stroke="#000000" paint-order="fill stroke markers" d=" M 77.3 152.3 L 102.3 152.3" stroke-linecap="square" stroke-miterlimit="10" stroke-width="0.8"/><path fill="none" stroke="#000000" paint-order="fill stroke markers" d=" M 77.3 152.3 L 52.3 152.3" stroke-linecap="square" stroke-miterlimit="10" stroke-width="0.8"/><path fill="none" stroke="#000000" paint-order="fill stroke markers" d=" M 152.3 102.3 L 127.3 102.3" stroke-linecap="square" stroke-miterlimit="10" stroke-width="0.8"/><path fill="none" stroke="#000000" paint-order="fill stroke markers" d=" M 152.3 102.3 L 152.3 152.3" stroke-linecap="square" stroke-miterlimit="10" stroke-width="0.8"/><path fill="none" stroke="#000000" paint-order="fill stroke markers" d=" M 127.3 152.3 L 152.3 152.3" stroke-linecap="square" stroke-miterlimit="10" stroke-width="0.8"/><path fill="none" stroke="#000000" paint-order="fill stroke markers" d=" M 127.3 152.3 L 102.3 152.3" stroke-linecap="square" stroke-miterlimit="10" stroke-width="0.8"/><path fill="#000000" stroke="none" paint-order="stroke fill markers" d=" M 54.4 2.299999999999997 A 2.1 2.1 0 1 0 54.39999895000008 2.302099999649998"/><path fill="#000000" stroke="none" paint-order="stroke fill markers" d=" M 104.39999999999999 2.299999999999997 A 2.1 2.1 0 1 0 104.39999895000008 2.302099999649998"/><path fill="#000000" stroke="none" paint-order="stroke fill markers" d=" M 104.39999999999999 52.3 A 2.1 2.1 0 1 0 104.39999895000008 52.30209999965"/><path fill="#000000" stroke="none" paint-order="stroke fill markers" d=" M 54.4 52.3 A 2.1 2.1 0 1 0 54.39999895000008 52.30209999965"/><path fill="#000000" stroke="none" paint-order="stroke fill markers" d=" M 29.4 52.3 A 2.1 2.1 0 1 0 29.399998950000086 52.30209999965"/><path fill="#000000" stroke="none" paint-order="stroke fill markers" d=" M 79.39999999999999 52.3 A 2.1 2.1 0 1 0 79.39999895000008 52.30209999965"/><path fill="#000000" stroke="none" paint-order="stroke fill markers" d=" M 79.39999999999999 102.3 A 2.1 2.1 0 1 0 79.39999895000008 102.30209999965"/><path fill="#000000" stroke="none" paint-order="stroke fill markers" d=" M 29.4 102.3 A 2.1 2.1 0 1 0 29.399998950000086 102.30209999965"/><path fill="#000000" stroke="none" paint-order="stroke fill markers" d=" M 129.4 52.3 A 2.1 2.1 0 1 0 129.39999895000008 52.30209999965"/><path fill="#000000" stroke="none" paint-order="stroke fill markers" d=" M 129.4 102.3 A 2.1 2.1 0 1 0 129.39999895000008 102.30209999965"/><path fill="#000000" stroke="none" paint-order="stroke fill markers" d=" M 4.399999999999997 102.3 A 2.1 2.1 0 1 0 4.399998950000085 102.30209999965"/><path fill="#000000" stroke="none" paint-order="stroke fill markers" d=" M 54.4 102.3 A 2.1 2.1 0 1 0 54.39999895000008 102.30209999965"/><path fill="#000000" stroke="none" paint-order="stroke fill markers" d=" M 54.4 152.3 A 2.1 2.1 0 1 0 54.39999895000008 152.30209999965"/><path fill="#000000" stroke="none" paint-order="stroke fill markers" d=" M 4.399999999999997 152.3 A 2.1 2.1 0 1 0 4.399998950000085 152.30209999965"/><path fill="#000000" stroke="none" paint-order="stroke fill markers" d=" M 104.39999999999999 102.3 A 2.1 2.1 0 1 0 104.39999895000008 102.30209999965"/><path fill="#000000" stroke="none" paint-order="stroke fill markers" d=" M 104.39999999999999 152.3 A 2.1 2.1 0 1 0 104.39999895000008 152.30209999965"/><path fill="#000000" stroke="none" paint-order="stroke fill markers" d=" M 154.4 102.3 A 2.1 2.1 0 1 0 154.3999989500001 102.30209999965"/><path fill="#000000" stroke="none" paint-order="stroke fill markers" d=" M 154.4 152.3 A 2.1 2.1 0 1 0 154.3999989500001 152.30209999965"/><text fill="none" stroke="rgb(255,255,255)" font-family="Helvetica,Arial" font-size="20px" font-style="normal" font-weight="normal" text-decoration="normal" x="77.3" y="34.4" text-anchor="middle" dominant-baseline="alphabetic" stroke-opacity="0" stroke-linecap="square" stroke-miterlimit="10" stroke-width="0.8">(3,2)</text><text fill="#000000" stroke="none" font-family="Helvetica,Arial" font-size="20px" font-style="normal" font-weight="normal" text-decoration="normal" x="77.3" y="34.4" text-anchor="middle" dominant-baseline="alphabetic">(3,2)</text><text fill="none" stroke="rgb(255,255,255)" font-family="Helvetica,Arial" font-size="20px" font-style="normal" font-weight="normal" text-decoration="normal" x="52.3" y="84.39999999999999" text-anchor="middle" dominant-baseline="alphabetic" stroke-opacity="0" stroke-linecap="square" stroke-miterlimit="10" stroke-width="0.8">(2,3)</text><text fill="#000000" stroke="none" font-family="Helvetica,Arial" font-size="20px" font-style="normal" font-weight="normal" text-decoration="normal" x="52.3" y="84.39999999999999" text-anchor="middle" dominant-baseline="alphabetic">(2,3)</text><text fill="none" stroke="rgb(255,255,255)" font-family="Helvetica,Arial" font-size="20px" font-style="normal" font-weight="normal" text-decoration="normal" x="102.3" y="84.39999999999999" text-anchor="middle" dominant-baseline="alphabetic" stroke-opacity="0" stroke-linecap="square" stroke-miterlimit="10" stroke-width="0.8">(3,3)</text><text fill="#000000" stroke="none" font-family="Helvetica,Arial" font-size="20px" font-style="normal" font-weight="normal" text-decoration="normal" x="102.3" y="84.39999999999999" text-anchor="middle" dominant-baseline="alphabetic">(3,3)</text><text fill="none" stroke="rgb(255,255,255)" font-family="Helvetica,Arial" font-size="20px" font-style="normal" font-weight="normal" text-decoration="normal" x="27.299999999999997" y="134.4" text-anchor="middle" dominant-baseline="alphabetic" stroke-opacity="0" stroke-linecap="square" stroke-miterlimit="10" stroke-width="0.8">(2,4)</text><text fill="#000000" stroke="none" font-family="Helvetica,Arial" font-size="20px" font-style="normal" font-weight="normal" text-decoration="normal" x="27.299999999999997" y="134.4" text-anchor="middle" dominant-baseline="alphabetic">(2,4)</text><text fill="none" stroke="rgb(255,255,255)" font-family="Helvetica,Arial" font-size="20px" font-style="normal" font-weight="normal" text-decoration="normal" x="77.3" y="134.4" text-anchor="middle" dominant-baseline="alphabetic" stroke-opacity="0" stroke-linecap="square" stroke-miterlimit="10" stroke-width="0.8">(3,4)</text><text fill="#000000" stroke="none" font-family="Helvetica,Arial" font-size="20px" font-style="normal" font-weight="normal" text-decoration="normal" x="77.3" y="134.4" text-anchor="middle" dominant-baseline="alphabetic">(3,4)</text><text fill="none" stroke="rgb(255,255,255)" font-family="Helvetica,Arial" font-size="20px" font-style="normal" font-weight="normal" text-decoration="normal" x="127.3" y="134.4" text-anchor="middle" dominant-baseline="alphabetic" stroke-opacity="0" stroke-linecap="square" stroke-miterlimit="10" stroke-width="0.8">(4,4)</text><text fill="#000000" stroke="none" font-family="Helvetica,Arial" font-size="20px" font-style="normal" font-weight="normal" text-decoration="normal" x="127.3" y="134.4" text-anchor="middle" dominant-baseline="alphabetic">(4,4)</text></g></svg>