<svg version="1.1" xmlns="http://www.w3.org/2000/svg" xmlns:xlink="http://www.w3.org/1999/xlink" width="299.20000000000005" height="292.40000000000003"><defs/><g><rect fill="rgb(255,255,255)" stroke="none" x="0" y="0" width="299.20000000000005" height="292.40000000000003" fill-opacity="0"/><path fill="none" stroke="#000000" paint-order="fill stroke markers" d=" M 107.1 100.3 L 145.1 100.3" stroke-linecap="square" stroke-miterlimit="10" stroke-width="0.8"/><path fill="none" stroke="#000000" paint-order="fill stroke markers" d=" M 145.1 100.3 L 183.1 100.3" stroke-linecap="square" stroke-miterlimit="10" stroke-width="0.8"/><path fill="none" stroke="#000000" paint-order="fill stroke markers" d=" M 183.1 100.3 L 221.1 100.3" stroke-linecap="square" stroke-miterlimit="10" stroke-width="0.8"/><path fill="none" stroke="#000000" paint-order="fill stroke markers" d=" M 107.1 100.3 L 107.1 138.3" stroke-linecap="square" stroke-miterlimit="10" stroke-width="0.8"/><path fill="none" stroke="#000000" paint-order="fill stroke markers" d=" M 145.1 100.3 L 145.1 138.3" stroke-linecap="square" stroke-miterlimit="10" stroke-width="0.8"/><path fill="none" stroke="#000000" paint-order="fill stroke markers" d=" M 107.1 138.3 L 145.1 138.3" stroke-linecap="square" stroke-miterlimit="10" stroke-width="0.8"/><path fill="none" stroke="#000000" paint-order="fill stroke markers" d=" M 183.1 100.3 L 183.1 138.3" stroke-linecap="square" stroke-miterlimit="10" stroke-width="0.8"/><path fill="none" stroke="#000000" paint-order="fill stroke markers" d=" M 145.1 138.3 L 183.1 138.3" stroke-linecap="square" stroke-miterlimit="10" stroke-width="0.8"/><path fill="none" stroke="#000000" paint-order="fill stroke markers" d=" M 221.1 100.3 L 221.1 138.3" stroke-linecap="square" stroke-miterlimit="10" stroke-width="0.8"/><path fill="none" stroke="#000000" paint-order="fill stroke markers" d=" M 183.1 138.3 L 221.1 138.3" stroke-linecap="square" stroke-miterlimit="10" stroke-width="0.8"/><path fill="none" stroke="#000000" paint-order="fill stroke markers" d=" M 107.1 138.3 L 107.1 176.3" stroke-linecap="square" stroke-miterlimit="10" stroke-width="0.8"/><path fill="none" stroke="#000000" paint-order="fill stroke markers" d=" M 145.1 138.3 L 145.1 176.3" stroke-linecap="square" stroke-miterlimit="10" stroke-width="0.8"/><path fill="none" stroke="#000000" paint-order="fill stroke markers" d=" M 107.1 176.3 L 145.1 176.3" stroke-linecap="square" stroke-miterlimit="10" stroke-width="0.8"/><path fill="none" stroke="#000000" paint-order="fill stroke markers" d=" M 183.1 138.3 L 183.1 176.3" stroke-linecap="square" stroke-miterlimit="10" stroke-width="0.8"/><path fill="none" stroke="#000000" paint-order="fill stroke markers" d=" M 145.1 176.3 L 183.1 176.3" stroke-linecap="square" stroke-miterlimit="10" stroke-width="0.8"/><path fill="none" stroke="#000000" paint-order="fill stroke markers" d=" M 221.1 138.3 L 221.1 176.3" stroke-linecap="square" stroke-miterlimit="10" stroke-width="0.8"/><path fill="none" stroke="#000000" paint-order="fill stroke markers" d=" M 183.1 176.3 L 221.1 176.3" stroke-linecap="square" stroke-miterlimit="10" stroke-width="0.8"/><path fill="none" stroke="#000000" paint-order="fill stroke markers" d=" M 107.1 176.3 L 107.1 214.3" stroke-linecap="square" stroke-miterlimit="10" stroke-width="0.8"/><path fill="none" stroke="#000000" paint-order="fill stroke markers" d=" M 145.1 176.3 L 145.1 214.3" stroke-linecap="square" stroke-miterlimit="10" stroke-width="0.8"/><path fill="none" stroke="#000000" paint-order="fill stroke markers" d=" M 107.1 214.3 L 145.1 214.3" stroke-linecap="square" stroke-miterlimit="10" stroke-width="0.8"/><path fill="none" stroke="#000000" paint-order="fill stroke markers" d=" M 183.1 176.3 L 183.1 214.3" stroke-linecap="square" stroke-miterlimit="10" stroke-width="0.8"/><path fill="none" stroke="#000000" paint-order="fill stroke markers" d=" M 145.1 214.3 L 183.1 214.3" stroke-linecap="square" stroke-miterlimit="10" stroke-width="0.8"/><path fill="none" stroke="#000000" paint-order="fill stroke markers" d=" M 221.1 176.3 L 221.1 214.3" stroke-linecap="square" stroke-miterlimit="10" stroke-width="0.8"/><path fill="none" stroke="#000000" paint-order="fill stroke markers" d=" M 183.1 214.3 L 221.1 214.3" stroke-linecap="square" stroke-miterlimit="10" stroke-width="0.8"/><path fill="#000000" stroke="none" paint-order="stroke fill markers" d=" M 33.199999999999996 24.299999999999997 A 2.1 2.1 0 1 0 33.19999895000008 24.302099999649997"/><path fill="#000000" stroke="none" paint-order="stroke fill markers" d=" M 71.19999999999999 24.299999999999997 A 2.1 2.1 0 1 0 71.19999895000008 24.302099999649997"/><path fill="#000000" stroke="none" paint-order="stroke fill markers" d=" M 71.19999999999999 62.3 A 2.1 2.1 0 1 0 71.19999895000008 62.30209999965"/><path fill="#000000" stroke="none" paint-order="stroke fill markers" d=" M 33.199999999999996 62.3 A 2.1 2.1 0 1 0 33.19999895000008 62.30209999965"/><path fill="#000000" stroke="none" paint-order="stroke fill markers" d=" M 109.19999999999999 24.299999999999997 A 2.1 2.1 0 1 0 109.19999895000008 24.302099999649997"/><path fill="#000000" stroke="none" paint-order="stroke fill markers" d=" M 109.19999999999999 62.3 A 2.1 2.1 0 1 0 109.19999895000008 62.30209999965"/><path fill="#000000" stroke="none" paint-order="stroke fill markers" d=" M 147.2 24.299999999999997 A 2.1 2.1 0 1 0 147.1999989500001 24.302099999649997"/><path fill="#000000" stroke="none" paint-order="stroke fill markers" d=" M 147.2 62.3 A 2.1 2.1 0 1 0 147.1999989500001 62.30209999965"/><path fill="#000000" stroke="none" paint-order="stroke fill markers" d=" M 185.2 24.299999999999997 A 2.1 2.1 0 1 0 185.1999989500001 24.302099999649997"/><path fill="#000000" stroke="none" paint-order="stroke fill markers" d=" M 185.2 62.3 A 2.1 2.1 0 1 0 185.1999989500001 62.30209999965"/><path fill="#000000" stroke="none" paint-order="stroke fill markers" d=" M 223.2 24.299999999999997 A 2.1 2.1 0 1 0 223.1999989500001 24.302099999649997"/><path fill="#000000" stroke="none" paint-order="stroke fill markers" d=" M 223.2 62.3 A 2.1 2.1 0 1 0 223.1999989500001 62.30209999965"/><path fill="#000000" stroke="none" paint-order="stroke fill markers" d=" M 261.20000000000005 24.299999999999997 A 2.1 2.1 0 1 0 261.1999989500001 24.302099999649997"/><path fill="#000000" stroke="none" paint-order="stroke fill markers" d=" M 261.20000000000005 62.3 A 2.1 2.1 0 1 0 261.1999989500001 62.30209999965"/><path fill="#000000" stroke="none" paint-order="stroke fill markers" d=" M 299.20000000000005 24.299999999999997 A 2.1 2.1 0 1 0 299.1999989500001 24.302099999649997"/><path fill="#000000" stroke="none" paint-order="stroke fill markers" d=" M 299.20000000000005 62.3 A 2.1 2.1 0 1 0 299.1999989500001 62.30209999965"/><path fill="#000000" stroke="none" paint-order="stroke fill markers" d=" M 71.19999999999999 100.3 A 2.1 2.1 0 1 0 71.19999895000008 100.30209999965"/><path fill="#000000" stroke="none" paint-order="stroke fill markers" d=" M 33.199999999999996 100.3 A 2.1 2.1 0 1 0 33.19999895000008 100.30209999965"/><path fill="#000000" stroke="none" paint-order="stroke fill markers" d=" M 109.19999999999999 100.3 A 2.1 2.1 0 1 0 109.19999895000008 100.30209999965"/><path fill="#000000" stroke="none" paint-order="stroke fill markers" d=" M 147.2 100.3 A 2.1 2.1 0 1 0 147.1999989500001 100.30209999965"/><path fill="#000000" stroke="none" paint-order="stroke fill markers" d=" M 185.2 100.3 A 2.1 2.1 0 1 0 185.1999989500001 100.30209999965"/><path fill="#000000" stroke="none" paint-order="stroke fill markers" d=" M 223.2 100.3 A 2.1 2.1 0 1 0 223.1999989500001 100.30209999965"/><path fill="#000000" stroke="none" paint-order="stroke fill markers" d=" M 261.20000000000005 100.3 A 2.1 2.1 0 1 0 261.1999989500001 100.30209999965"/><path fill="#000000" stroke="none" paint-order="stroke fill markers" d=" M 299.20000000000005 100.3 A 2.1 2.1 0 1 0 299.1999989500001 100.30209999965"/><path fill="#000000" stroke="none" paint-order="stroke fill markers" d=" M 71.19999999999999 138.3 A 2.1 2.1 0 1 0 71.19999895000008 138.30209999965"/><path fill="#000000" stroke="none" paint-order="stroke fill markers" d=" M 33.199999999999996 138.3 A 2.1 2.1 0 1 0 33.19999895000008 138.30209999965"/><path fill="#000000" stroke="none" paint-order="stroke fill markers" d=" M 109.19999999999999 138.3 A 2.1 2.1 0 1 0 109.19999895000008 138.30209999965"/><path fill="#000000" stroke="none" paint-order="stroke fill markers" d=" M 147.2 138.3 A 2.1 2.1 0 1 0 147.1999989500001 138.30209999965"/><path fill="#000000" stroke="none" paint-order="stroke fill markers" d=" M 185.2 138.3 A 2.1 2.1 0 1 0 185.1999989500001 138.30209999965"/><path fill="#000000" stroke="none" paint-order="stroke fill markers" d=" M 223.2 138.3 A 2.1 2.1 0 1 0 223.1999989500001 138.30209999965"/><path fill="#000000" stroke="none" paint-order="stroke fill markers" d=" M 261.20000000000005 138.3 A 2.1 2.1 0 1 0 261.1999989500001 138.30209999965"/><path fill="#000000" stroke="none" paint-order="stroke fill markers" d=" M 299.20000000000005 138.3 A 2.1 2.1 0 1 0 299.1999989500001 138.30209999965"/><path fill="#000000" stroke="none" paint-order="stroke fill markers" d=" M 71.19999999999999 176.3 A 2.1 2.1 0 1 0 71.19999895000008 176.30209999965"/><path fill="#000000" stroke="none" paint-order="stroke fill markers" d=" M 33.199999999999996 176.3 A 2.1 2.1 0 1 0 33.19999895000008 176.30209999965"/><path fill="#000000" stroke="none" paint-order="stroke fill markers" d=" M 109.19999999999999 176.3 A 2.1 2.1 0 1 0 109.19999895000008 176.30209999965"/><path fill="#000000" stroke="none" paint-order="stroke fill markers" d=" M 147.2 176.3 A 2.1 2.1 0 1 0 147.1999989500001 176.30209999965"/><path fill="#000000" stroke="none" paint-order="stroke fill markers" d=" M 185.2 176.3 A 2.1 2.1 0 1 0 185.1999989500001 176.30209999965"/><path fill="#000000" stroke="none" paint-order="stroke fill markers" d=" M 223.2 176.3 A 2.1 2.1 0 1 0 223.1999989500001 176.30209999965"/><path fill="#000000" stroke="none" paint-order="stroke fill markers" d=" M 261.20000000000005 176.3 A 2.1 2.1 0 1 0 261.1999989500001 176.30209999965"/><path fill="#000000" stroke="none" paint-order="stroke fill markers" d=" M 299.20000000000005 176.3 A 2.1 2.1 0 1 0 299.1999989500001 176.30209999965"/><path fill="#000000" stroke="none" paint-order="stroke fill markers" d=" M 71.19999999999999 214.3 A 2.1 2.1 0 1 0 71.19999895000008 214.30209999965"/><path fill="#000000" stroke="none" paint-order="stroke fill markers" d=" M 33.199999999999996 214.3 A 2.1 2.1 0 1 0 33.19999895000008 214.30209999965"/><path fill="#000000" stroke="none" paint-order="stroke fill markers" d=" M 109.19999999999999 214.3 A 2.1 2.1 0 1 0 109.19999895000008 214.30209999965"/><path fill="#000000" stroke="none" paint-order="stroke fill markers" d=" M 147.2 214.3 A 2.1 2.1 0 1 0 147.1999989500001 214.30209999965"/><path fill="#000000" stroke="none" paint-order="stroke fill markers" d=" M 185.2 214.3 A 2.1 2.1 0 1 0 185.1999989500001 214.30209999965"/><path fill="#000000" stroke="none" paint-order="stroke fill markers" d=" M 223.2 214.3 A 2.1 2.1 0 1 0 223.1999989500001 214.30209999965"/><path fill="#000000" stroke="none" paint-order="stroke fill markers" d=" M 261.20000000000005 214.3 A 2.1 2.1 0 1 0 261.1999989500001 214.30209999965"/><path fill="#000000" stroke="none" paint-order="stroke fill markers" d=" M 299.20000000000005 214.3 A 2.1 2.1 0 1 0 299.1999989500001 214.30209999965"/><path fill="#000000" stroke="none" paint-order="stroke fill markers" d=" M 71.19999999999999 252.3 A 2.1 2.1 0 1 0 71.19999895000008 252.30209999965"/><path fill="#000000" stroke="none" paint-order="stroke fill markers" d=" M 33.199999999999996 252.3 A 2.1 2.1 0 1 0 33.19999895000008 252.30209999965"/><path fill="#000000" stroke="none" paint-order="stroke fill markers" d=" M 109.19999999999999 252.3 A 2.1 2.1 0 1 0 109.19999895000008 252.30209999965"/><path fill="#000000" stroke="none" paint-order="stroke fill markers" d=" M 147.2 252.3 A 2.1 2.1 0 1 0 147.1999989500001 252.30209999965"/><path fill="#000000" stroke="none" paint-order="stroke fill markers" d=" M 185.2 252.3 A 2.1 2.1 0 1 0 185.1999989500001 252.30209999965"/><path fill="#000000" stroke="none" paint-order="stroke fill markers" d=" M 223.2 252.3 A 2.1 2.1 0 1 0 223.1999989500001 252.30209999965"/><path fill="#000000" stroke="none" paint-order="stroke fill markers" d=" M 261.20000000000005 252.3 A 2.1 2.1 0 1 0 261.1999989500001 252.30209999965"/><path fill="#000000" stroke="none" paint-order="stroke fill markers" d=" M 299.20000000000005 252.3 A 2.1 2.1 0 1 0 299.1999989500001 252.30209999965"/><path fill="#000000" stroke="none" paint-order="stroke fill markers" d=" M 71.19999999999999 290.3 A 2.1 2.1 0 1 0 71.19999895000008 290.30209999965"/><path fill="#000000" stroke="none" paint-order="stroke fill markers" d=" M 33.199999999999996 290.3 A 2.1 2.1 0 1 0 33.19999895000008 290.30209999965"/><path fill="#000000" stroke="none" paint-order="stroke fill markers" d=" M 109.19999999999999 290.3 A 2.1 2.1 0 1 0 109.19999895000008 290.30209999965"/><path fill="#000000" stroke="none" paint-order="stroke fill markers" d=" M 147.2 290.3 A 2.1 2.1 0 1 0 147.1999989500001 290.30209999965"/><path fill="#000000" stroke="none" paint-order="stroke fill markers" d=" M 185.2 290.3 A 2.1 2.1 0 1 0 185.1999989500001 290.30209999965"/><path fill="#000000" stroke="none" paint-order="stroke fill markers" d=" M 223.2 290.3 A 2.1 2.1 0 1 0 223.1999989500001 290.30209999965"/><path fill="#000000" stroke="none" paint-order="stroke fill markers" d=" M 261.20000000000005 290.3 A 2.1 2.1 0 1 0 261.1999989500001 290.30209999965"/><path fill="#000000" stroke="none" paint-order="stroke fill markers" d=" M 299.20000000000005 290.3 A 2.1 2.1 0 1 0 299.1999989500001 290.30209999965"/><text fill="none" stroke="rgb(255,255,255)" font-family="Helvetica,Arial" font-size="15.200000000000001px" font-style="normal" font-weight="normal" text-decoration="normal" x="164.1" y="10.695999999999984" text-anchor="middle" dominant-baseline="alphabetic" stroke-opacity="0" stroke-linecap="square" stroke-miterlimit="10" stroke-width="0.8">w=7</text><text fill="#000000" stroke="none" font-family="Helvetica,Arial" font-size="15.200000000000001px" font-style="normal" font-weight="normal" text-decoration="normal" x="164.1" y="10.695999999999984" text-anchor="middle" dominant-baseline="alphabetic">w=7</text><text fill="none" stroke="rgb(255,255,255)" font-family="Helvetica,Arial" font-size="15.200000000000001px" font-style="normal" font-weight="normal" text-decoration="normal" x="126.1" y="124.696" text-anchor="middle" dominant-baseline="alphabetic" stroke-opacity="0" stroke-linecap="square" stroke-miterlimit="10" stroke-width="0.8">(2,2)</text><text fill="#000000" stroke="none" font-family="Helvetica,Arial" font-size="15.200000000000001px" font-style="normal" font-weight="normal" text-decoration="normal" x="126.1" y="124.696" text-anchor="middle" dominant-baseline="alphabetic">(2,2)</text><text fill="none" stroke="rgb(255,255,255)" font-family="Helvetica,Arial" font-size="15.200000000000001px" font-style="normal" font-weight="normal" text-decoration="normal" x="164.1" y="124.696" text-anchor="middle" dominant-baseline="alphabetic" stroke-opacity="0" stroke-linecap="square" stroke-miterlimit="10" stroke-width="0.8">(3,2)</text><text fill="#000000" stroke="none" font-family="Helvetica,Arial" font-size="15.200000000000001px" font-style="normal" font-weight="normal" text-decoration="normal" x="164.1" y="124.696" text-anchor="middle" dominant-baseline="alphabetic">(3,2)</text><text fill="none" stroke="rgb(255,255,255)" font-family="Helvetica,Arial" font-size="15.200000000000001px" font-style="normal" font-weight="normal" text-decoration="normal" x="12.099999999999994" y="162.696" text-anchor="middle" dominant-baseline="alphabetic" stroke-opacity="0" stroke-linecap="square" stroke-miterlimit="10" stroke-width="0.8">h=7</text><text fill="#000000" stroke="none" font-family="Helvetica,Arial" font-size="15.200000000000001px" font-style="normal" font-weight="normal" text-decoration="normal" x="12.099999999999994" y="162.696" text-anchor="middle" dominant-baseline="alphabetic">h=7</text><text fill="none" stroke="rgb(255,255,255)" font-family="Helvetica,Arial" font-size="15.200000000000001px" font-style="normal" font-weight="normal" text-decoration="normal" x="126.1" y="162.696" text-anchor="middle" dominant-baseline="alphabetic" stroke-opacity="0" stroke-linecap="square" stroke-miterlimit="10" stroke-width="0.8">(2,3)</text><text fill="#000000" stroke="none" font-family="Helvetica,Arial" font-size="15.200000000000001px" font-style="normal" font-weight="normal" text-decoration="normal" x="126.1" y="162.696" text-anchor="middle" dominant-baseline="alphabetic">(2,3)</text></g></svg>