<svg version="1.1" xmlns="http://www.w3.org/2000/svg" xmlns:xlink="http://www.w3.org/1999/xlink" width="184.4" height="184.39999999999998"><defs/><g><rect fill="rgb(255,255,255)" stroke="none" x="0" y="0" width="184.4" height="184.39999999999998" fill-opacity="0"/><path fill="none" stroke="#000000" paint-order="fill stroke markers" d=" M 2.322758664047811 78.21517244269859 L 40.32275866404781 78.21517244269859" stroke-linecap="square" stroke-miterlimit="10" stroke-width="0.8"/><path fill="none" stroke="#000000" paint-order="fill stroke markers" d=" M 2.322758664047811 40.21517244269859 L 2.322758664047811 78.21517244269859" stroke-linecap="square" stroke-miterlimit="10" stroke-width="0.8"/><path fill="none" stroke="#000000" paint-order="fill stroke markers" d=" M 2.322758664047811 40.21517244269859 L 40.32275866404781 40.2151724426986" stroke-linecap="square" stroke-miterlimit="10" stroke-width="0.8"/><path fill="none" stroke="#000000" paint-order="fill stroke markers" d=" M 40.32275866404781 40.2151724426986 L 40.32275866404781 78.21517244269859" stroke-linecap="square" stroke-miterlimit="10" stroke-width="0.8"/><path fill="none" stroke="#000000" paint-order="fill stroke markers" d=" M 40.32275866404781 78.21517244269859 L 73.23172400785647 59.21517244269859" stroke-linecap="square" stroke-miterlimit="10" stroke-width="0.8"/><path fill="none" stroke="#000000" paint-order="fill stroke markers" d=" M 40.32275866404781 40.2151724426986 L 73.23172400785647 59.21517244269859" stroke-linecap="square" stroke-miterlimit="10" stroke-width="0.8"/><path fill="none" stroke="#000000" paint-order="fill stroke markers" d=" M 2.322758664047811 78.21517244269859 L 21.32275866404781 111.12413778650723" stroke-linecap="square" stroke-miterlimit="10" stroke-width="0.8"/><path fill="none" stroke="#000000" paint-order="fill stroke markers" d=" M 21.32275866404781 111.12413778650723 L 40.32275866404781 78.21517244269859" stroke-linecap="square" stroke-miterlimit="10" stroke-width="0.8"/><path fill="none" stroke="#000000" paint-order="fill stroke markers" d=" M 21.32275866404781 111.12413778650723 L 59.32275866404781 111.12413778650723" stroke-linecap="square" stroke-miterlimit="10" stroke-width="0.8"/><path fill="none" stroke="#000000" paint-order="fill stroke markers" d=" M 40.32275866404781 78.21517244269859 L 59.32275866404781 111.12413778650723" stroke-linecap="square" stroke-miterlimit="10" stroke-width="0.8"/><path fill="none" stroke="#000000" paint-order="fill stroke markers" d=" M 59.32275866404781 111.12413778650723 L 92.2317240078565 92.12413778650725" stroke-linecap="square" stroke-miterlimit="10" stroke-width="0.8"/><path fill="none" stroke="#000000" paint-order="fill stroke markers" d=" M 73.23172400785647 59.21517244269859 L 92.2317240078565 92.12413778650725" stroke-linecap="square" stroke-miterlimit="10" stroke-width="0.8"/><path fill="none" stroke="#000000" paint-order="fill stroke markers" d=" M 40.32275866404781 40.2151724426986 L 73.23172400785647 21.215172442698588" stroke-linecap="square" stroke-miterlimit="10" stroke-width="0.8"/><path fill="none" stroke="#000000" paint-order="fill stroke markers" d=" M 73.23172400785647 21.215172442698588 L 73.23172400785647 59.21517244269859" stroke-linecap="square" stroke-miterlimit="10" stroke-width="0.8"/><path fill="none" stroke="#000000" paint-order="fill stroke markers" d=" M 73.23172400785647 59.21517244269859 L 111.23172400785647 59.21517244269859" stroke-linecap="square" stroke-miterlimit="10" stroke-width="0.8"/><path fill="none" stroke="#000000" paint-order="fill stroke markers" d=" M 73.23172400785647 21.215172442698588 L 111.23172400785647 21.215172442698588" stroke-linecap="square" stroke-miterlimit="10" stroke-width="0.8"/><path fill="none" stroke="#000000" paint-order="fill stroke markers" d=" M 111.23172400785647 21.215172442698588 L 111.23172400785647 59.21517244269859" stroke-linecap="square" stroke-miterlimit="10" stroke-width="0.8"/><path fill="none" stroke="#000000" paint-order="fill stroke markers" d=" M 111.23172400785647 59.21517244269859 L 144.14068935166515 40.2151724426986" stroke-linecap="square" stroke-miterlimit="10" stroke-width="0.8"/><path fill="none" stroke="#000000" paint-order="fill stroke markers" d=" M 111.23172400785647 21.215172442698588 L 144.14068935166515 40.2151724426986" stroke-linecap="square" stroke-miterlimit="10" stroke-width="0.8"/><path fill="none" stroke="#000000" paint-order="fill stroke markers" d=" M 92.2317240078565 92.12413778650725 L 111.23172400785647 59.21517244269859" stroke-linecap="square" stroke-miterlimit="10" stroke-width="0.8"/><path fill="none" stroke="#000000" paint-order="fill stroke markers" d=" M 92.2317240078565 92.12413778650725 L 130.23172400785649 92.12413778650726" stroke-linecap="square" stroke-miterlimit="10" stroke-width="0.8"/><path fill="none" stroke="#000000" paint-order="fill stroke markers" d=" M 111.23172400785647 59.21517244269859 L 130.23172400785649 92.12413778650726" stroke-linecap="square" stroke-miterlimit="10" stroke-width="0.8"/><path fill="none" stroke="#000000" paint-order="fill stroke markers" d=" M 130.23172400785649 92.12413778650726 L 163.14068935166517 73.12413778650726" stroke-linecap="square" stroke-miterlimit="10" stroke-width="0.8"/><path fill="none" stroke="#000000" paint-order="fill stroke markers" d=" M 144.14068935166515 40.2151724426986 L 163.14068935166517 73.12413778650726" stroke-linecap="square" stroke-miterlimit="10" stroke-width="0.8"/><path fill="none" stroke="#000000" paint-order="fill stroke markers" d=" M 111.23172400785647 21.215172442698588 L 144.14068935166517 2.215172442698588" stroke-linecap="square" stroke-miterlimit="10" stroke-width="0.8"/><path fill="none" stroke="#000000" paint-order="fill stroke markers" d=" M 144.14068935166517 2.215172442698588 L 144.14068935166515 40.2151724426986" stroke-linecap="square" stroke-miterlimit="10" stroke-width="0.8"/><path fill="none" stroke="#000000" paint-order="fill stroke markers" d=" M 21.322758664047825 149.12413778650722 L 59.32275866404781 149.12413778650722" stroke-linecap="square" stroke-miterlimit="10" stroke-width="0.8"/><path fill="none" stroke="#000000" paint-order="fill stroke markers" d=" M 21.32275866404781 111.12413778650723 L 21.322758664047825 149.12413778650722" stroke-linecap="square" stroke-miterlimit="10" stroke-width="0.8"/><path fill="none" stroke="#000000" paint-order="fill stroke markers" d=" M 59.32275866404781 111.12413778650723 L 59.32275866404781 149.12413778650722" stroke-linecap="square" stroke-miterlimit="10" stroke-width="0.8"/><path fill="none" stroke="#000000" paint-order="fill stroke markers" d=" M 59.32275866404781 149.12413778650722 L 92.23172400785647 130.12413778650722" stroke-linecap="square" stroke-miterlimit="10" stroke-width="0.8"/><path fill="none" stroke="#000000" paint-order="fill stroke markers" d=" M 59.32275866404781 111.12413778650723 L 92.23172400785647 130.12413778650722" stroke-linecap="square" stroke-miterlimit="10" stroke-width="0.8"/><path fill="none" stroke="#000000" paint-order="fill stroke markers" d=" M 21.322758664047825 149.12413778650722 L 40.32275866404781 182.0331031303159" stroke-linecap="square" stroke-miterlimit="10" stroke-width="0.8"/><path fill="none" stroke="#000000" paint-order="fill stroke markers" d=" M 40.32275866404781 182.0331031303159 L 59.32275866404781 149.12413778650722" stroke-linecap="square" stroke-miterlimit="10" stroke-width="0.8"/><path fill="none" stroke="#000000" paint-order="fill stroke markers" d=" M 40.32275866404781 182.0331031303159 L 78.32275866404781 182.0331031303159" stroke-linecap="square" stroke-miterlimit="10" stroke-width="0.8"/><path fill="none" stroke="#000000" paint-order="fill stroke markers" d=" M 59.32275866404781 149.12413778650722 L 78.32275866404781 182.0331031303159" stroke-linecap="square" stroke-miterlimit="10" stroke-width="0.8"/><path fill="none" stroke="#000000" paint-order="fill stroke markers" d=" M 78.32275866404781 182.0331031303159 L 111.2317240078565 163.0331031303159" stroke-linecap="square" stroke-miterlimit="10" stroke-width="0.8"/><path fill="none" stroke="#000000" paint-order="fill stroke markers" d=" M 92.23172400785647 130.12413778650722 L 111.2317240078565 163.0331031303159" stroke-linecap="square" stroke-miterlimit="10" stroke-width="0.8"/><path fill="none" stroke="#000000" paint-order="fill stroke markers" d=" M 92.2317240078565 92.12413778650725 L 92.23172400785647 130.12413778650722" stroke-linecap="square" stroke-miterlimit="10" stroke-width="0.8"/><path fill="none" stroke="#000000" paint-order="fill stroke markers" d=" M 92.23172400785647 130.12413778650722 L 130.23172400785649 130.12413778650722" stroke-linecap="square" stroke-miterlimit="10" stroke-width="0.8"/><path fill="none" stroke="#000000" paint-order="fill stroke markers" d=" M 130.23172400785649 92.12413778650726 L 130.23172400785649 130.12413778650722" stroke-linecap="square" stroke-miterlimit="10" stroke-width="0.8"/><path fill="none" stroke="#000000" paint-order="fill stroke markers" d=" M 130.23172400785649 130.12413778650722 L 163.14068935166515 111.12413778650726" stroke-linecap="square" stroke-miterlimit="10" stroke-width="0.8"/><path fill="none" stroke="#000000" paint-order="fill stroke markers" d=" M 130.23172400785649 92.12413778650726 L 163.14068935166515 111.12413778650726" stroke-linecap="square" stroke-miterlimit="10" stroke-width="0.8"/><path fill="none" stroke="#000000" paint-order="fill stroke markers" d=" M 111.2317240078565 163.0331031303159 L 130.23172400785649 130.12413778650722" stroke-linecap="square" stroke-miterlimit="10" stroke-width="0.8"/><path fill="none" stroke="#000000" paint-order="fill stroke markers" d=" M 111.2317240078565 163.0331031303159 L 149.23172400785649 163.0331031303159" stroke-linecap="square" stroke-miterlimit="10" stroke-width="0.8"/><path fill="none" stroke="#000000" paint-order="fill stroke markers" d=" M 130.23172400785649 130.12413778650722 L 149.23172400785649 163.0331031303159" stroke-linecap="square" stroke-miterlimit="10" stroke-width="0.8"/><path fill="none" stroke="#000000" paint-order="fill stroke markers" d=" M 149.23172400785649 163.0331031303159 L 182.14068935166517 144.0331031303159" stroke-linecap="square" stroke-miterlimit="10" stroke-width="0.8"/><path fill="none" stroke="#000000" paint-order="fill stroke markers" d=" M 163.14068935166515 111.12413778650726 L 182.14068935166517 144.0331031303159" stroke-linecap="square" stroke-miterlimit="10" stroke-width="0.8"/><path fill="none" stroke="#000000" paint-order="fill stroke markers" d=" M 163.14068935166517 73.12413778650726 L 163.14068935166515 111.12413778650726" stroke-linecap="square" stroke-miterlimit="10" stroke-width="0.8"/><path fill="#000000" stroke="none" paint-order="stroke fill markers" d=" M 42.42275866404781 78.21517244269859 A 2.1 2.1 0 1 0 42.422757614047896 78.21727244234859"/><path fill="#000000" stroke="none" paint-order="stroke fill markers" d=" M 4.4227586640478105 78.21517244269859 A 2.1 2.1 0 1 0 4.422757614047899 78.21727244234859"/><path fill="#000000" stroke="none" paint-order="stroke fill markers" d=" M 4.4227586640478105 40.21517244269859 A 2.1 2.1 0 1 0 4.422757614047899 40.21727244234859"/><path fill="#000000" stroke="none" paint-order="stroke fill markers" d=" M 42.42275866404781 40.2151724426986 A 2.1 2.1 0 1 0 42.422757614047896 40.2172724423486"/><path fill="#000000" stroke="none" paint-order="stroke fill markers" d=" M 75.33172400785647 59.21517244269859 A 2.1 2.1 0 1 0 75.33172295785656 59.21727244234859"/><path fill="#000000" stroke="none" paint-order="stroke fill markers" d=" M 23.422758664047812 111.12413778650723 A 2.1 2.1 0 1 0 23.4227576140479 111.12623778615723"/><path fill="#000000" stroke="none" paint-order="stroke fill markers" d=" M 61.42275866404781 111.12413778650723 A 2.1 2.1 0 1 0 61.422757614047896 111.12623778615723"/><path fill="#000000" stroke="none" paint-order="stroke fill markers" d=" M 94.3317240078565 92.12413778650725 A 2.1 2.1 0 1 0 94.33172295785658 92.12623778615725"/><path fill="#000000" stroke="none" paint-order="stroke fill markers" d=" M 75.33172400785647 21.215172442698588 A 2.1 2.1 0 1 0 75.33172295785656 21.217272442348587"/><path fill="#000000" stroke="none" paint-order="stroke fill markers" d=" M 113.33172400785647 59.21517244269859 A 2.1 2.1 0 1 0 113.33172295785656 59.21727244234859"/><path fill="#000000" stroke="none" paint-order="stroke fill markers" d=" M 113.33172400785647 21.215172442698588 A 2.1 2.1 0 1 0 113.33172295785656 21.217272442348587"/><path fill="#000000" stroke="none" paint-order="stroke fill markers" d=" M 146.24068935166514 40.2151724426986 A 2.1 2.1 0 1 0 146.24068830166524 40.2172724423486"/><path fill="#000000" stroke="none" paint-order="stroke fill markers" d=" M 132.33172400785648 92.12413778650726 A 2.1 2.1 0 1 0 132.33172295785658 92.12623778615726"/><path fill="#000000" stroke="none" paint-order="stroke fill markers" d=" M 165.24068935166517 73.12413778650726 A 2.1 2.1 0 1 0 165.24068830166527 73.12623778615726"/><path fill="#000000" stroke="none" paint-order="stroke fill markers" d=" M 146.24068935166517 2.215172442698588 A 2.1 2.1 0 1 0 146.24068830166527 2.217272442348589"/><path fill="#000000" stroke="none" paint-order="stroke fill markers" d=" M 61.42275866404781 149.12413778650722 A 2.1 2.1 0 1 0 61.422757614047896 149.12623778615722"/><path fill="#000000" stroke="none" paint-order="stroke fill markers" d=" M 23.422758664047826 149.12413778650722 A 2.1 2.1 0 1 0 23.422757614047914 149.12623778615722"/><path fill="#000000" stroke="none" paint-order="stroke fill markers" d=" M 94.33172400785647 130.12413778650722 A 2.1 2.1 0 1 0 94.33172295785656 130.12623778615722"/><path fill="#000000" stroke="none" paint-order="stroke fill markers" d=" M 42.42275866404781 182.0331031303159 A 2.1 2.1 0 1 0 42.422757614047896 182.0352031299659"/><path fill="#000000" stroke="none" paint-order="stroke fill markers" d=" M 80.4227586640478 182.0331031303159 A 2.1 2.1 0 1 0 80.4227576140479 182.0352031299659"/><path fill="#000000" stroke="none" paint-order="stroke fill markers" d=" M 113.3317240078565 163.0331031303159 A 2.1 2.1 0 1 0 113.33172295785658 163.0352031299659"/><path fill="#000000" stroke="none" paint-order="stroke fill markers" d=" M 132.33172400785648 130.12413778650722 A 2.1 2.1 0 1 0 132.33172295785658 130.12623778615722"/><path fill="#000000" stroke="none" paint-order="stroke fill markers" d=" M 165.24068935166514 111.12413778650726 A 2.1 2.1 0 1 0 165.24068830166524 111.12623778615726"/><path fill="#000000" stroke="none" paint-order="stroke fill markers" d=" M 151.33172400785648 163.0331031303159 A 2.1 2.1 0 1 0 151.33172295785658 163.0352031299659"/><path fill="#000000" stroke="none" paint-order="stroke fill markers" d=" M 184.24068935166517 144.0331031303159 A 2.1 2.1 0 1 0 184.24068830166527 144.0352031299659"/><text fill="none" stroke="rgb(255,255,255)" font-family="Helvetica,Arial" font-size="15.200000000000001px" font-style="normal" font-weight="normal" text-decoration="normal" x="21.32275866404781" y="64.61117244269859" text-anchor="middle" dominant-baseline="alphabetic" stroke-opacity="0" stroke-linecap="square" stroke-miterlimit="10" stroke-width="0.8">(1,1)</text><text fill="#000000" stroke="none" font-family="Helvetica,Arial" font-size="15.200000000000001px" font-style="normal" font-weight="normal" text-decoration="normal" x="21.32275866404781" y="64.61117244269859" text-anchor="middle" dominant-baseline="alphabetic">(1,1)</text><text fill="none" stroke="rgb(255,255,255)" font-family="Helvetica,Arial" font-size="15.200000000000001px" font-style="normal" font-weight="normal" text-decoration="normal" x="92.23172400785647" y="45.6111724426986" text-anchor="middle" dominant-baseline="alphabetic" stroke-opacity="0" stroke-linecap="square" stroke-miterlimit="10" stroke-width="0.8">(2,1)</text><text fill="#000000" stroke="none" font-family="Helvetica,Arial" font-size="15.200000000000001px" font-style="normal" font-weight="normal" text-decoration="normal" x="92.23172400785647" y="45.6111724426986" text-anchor="middle" dominant-baseline="alphabetic">(2,1)</text><text fill="none" stroke="rgb(255,255,255)" font-family="Helvetica,Arial" font-size="15.200000000000001px" font-style="normal" font-weight="normal" text-decoration="normal" x="40.32275866404781" y="135.5201377865072" text-anchor="middle" dominant-baseline="alphabetic" stroke-opacity="0" stroke-linecap="square" stroke-miterlimit="10" stroke-width="0.8">(1,2)</text><text fill="#000000" stroke="none" font-family="Helvetica,Arial" font-size="15.200000000000001px" font-style="normal" font-weight="normal" text-decoration="normal" x="40.32275866404781" y="135.5201377865072" text-anchor="middle" dominant-baseline="alphabetic">(1,2)</text><text fill="none" stroke="rgb(255,255,255)" font-family="Helvetica,Arial" font-size="15.200000000000001px" font-style="normal" font-weight="normal" text-decoration="normal" x="111.23172400785647" y="116.52013778650726" text-anchor="middle" dominant-baseline="alphabetic" stroke-opacity="0" stroke-linecap="square" stroke-miterlimit="10" stroke-width="0.8">(2,2)</text><text fill="#000000" stroke="none" font-family="Helvetica,Arial" font-size="15.200000000000001px" font-style="normal" font-weight="normal" text-decoration="normal" x="111.23172400785647" y="116.52013778650726" text-anchor="middle" dominant-baseline="alphabetic">(2,2)</text></g></svg>