<svg version="1.1" xmlns="http://www.w3.org/2000/svg" xmlns:xlink="http://www.w3.org/1999/xlink" width="342" height="342"><defs/><g><rect fill="rgb(255,255,255)" stroke="none" x="0" y="0" width="342" height="342" fill-opacity="0"/><path fill="none" stroke="#000000" paint-order="fill stroke markers" d=" M 133.5 -18.5 L 133.5 19.5" stroke-linecap="round" stroke-miterlimit="10" stroke-width="3"/><path fill="none" stroke="#000000" paint-order="fill stroke markers" d=" M 133.5 171.5 L 133.5 209.5" stroke-linecap="round" stroke-miterlimit="10" stroke-width="3"/><path fill="none" stroke="#000000" paint-order="fill stroke markers" d=" M 133.5 19.5 L 133.5 57.5" stroke-linecap="round" stroke-miterlimit="10" stroke-width="3"/><path fill="none" stroke="#000000" paint-order="fill stroke markers" d=" M 133.5 57.5 L 133.5 95.5" stroke-linecap="round" stroke-miterlimit="10" stroke-width="3"/><path fill="none" stroke="#000000" paint-order="fill stroke markers" d=" M 133.5 95.5 L 133.5 133.5" stroke-linecap="round" stroke-miterlimit="10" stroke-width="3"/><path fill="none" stroke="#000000" paint-order="fill stroke markers" d=" M 133.5 133.5 L 133.5 171.5" stroke-linecap="round" stroke-miterlimit="10" stroke-width="3"/><path fill="none" stroke="#000000" paint-order="fill stroke markers" d=" M 133.5 209.5 L 133.5 247.5" stroke-linecap="round" stroke-miterlimit="10" stroke-width="3"/><path fill="none" stroke="#000000" paint-order="fill stroke markers" d=" M 133.5 247.5 L 133.5 285.5" stroke-linecap="round" stroke-miterlimit="10" stroke-width="3"/><path fill="none" stroke="#000000" paint-order="fill stroke markers" d=" M 133.5 285.5 L 133.5 323.5" stroke-linecap="round" stroke-miterlimit="10" stroke-width="3"/><path fill="none" stroke="#000000" paint-order="fill stroke markers" d=" M -18.5 209.5 L 19.5 209.5" stroke-linecap="round" stroke-miterlimit="10" stroke-width="3"/><path fill="none" stroke="#000000" paint-order="fill stroke markers" d=" M 19.5 209.5 L 57.5 209.5" stroke-linecap="round" stroke-miterlimit="10" stroke-width="3"/><path fill="none" stroke="#000000" paint-order="fill stroke markers" d=" M 57.5 209.5 L 95.5 209.5" stroke-linecap="round" stroke-miterlimit="10" stroke-width="3"/><path fill="none" stroke="#000000" paint-order="fill stroke markers" d=" M 95.5 209.5 L 133.5 209.5" stroke-linecap="round" stroke-miterlimit="10" stroke-width="3"/><path fill="none" stroke="#000000" paint-order="fill stroke markers" d=" M 133.5 209.5 L 171.5 209.5" stroke-linecap="round" stroke-miterlimit="10" stroke-width="3"/><path fill="none" stroke="#000000" paint-order="fill stroke markers" d=" M 171.5 209.5 L 209.5 209.5" stroke-linecap="round" stroke-miterlimit="10" stroke-width="3"/><path fill="none" stroke="#000000" paint-order="fill stroke markers" d=" M 209.5 209.5 L 247.5 209.5" stroke-linecap="round" stroke-miterlimit="10" stroke-width="3"/><path fill="none" stroke="#000000" paint-order="fill stroke markers" d=" M 247.5 209.5 L 285.5 209.5" stroke-linecap="round" stroke-miterlimit="10" stroke-width="3"/><path fill="none" stroke="#000000" paint-order="fill stroke markers" d=" M 285.5 209.5 L 323.5 209.5" stroke-linecap="round" stroke-miterlimit="10" stroke-width="3"/><path fill="none" stroke="#000000" paint-order="fill stroke markers" d=" M 323.5 209.5 L 361.5 209.5" stroke-linecap="round" stroke-miterlimit="10" stroke-width="3"/><path fill="none" stroke="#000000" paint-order="fill stroke markers" d=" M -18.5 57.5 L 19.5 95.5" stroke-linecap="round" stroke-miterlimit="10" stroke-width="3"/><path fill="none" stroke="#000000" paint-order="fill stroke markers" d=" M 19.5 95.5 L 57.5 133.5" stroke-linecap="round" stroke-miterlimit="10" stroke-width="3"/><path fill="none" stroke="#000000" paint-order="fill stroke markers" d=" M 57.5 133.5 L 95.5 171.5" stroke-linecap="round" stroke-miterlimit="10" stroke-width="3"/><path fill="none" stroke="#000000" paint-order="fill stroke markers" d=" M 95.5 171.5 L 133.5 209.5" stroke-linecap="round" stroke-miterlimit="10" stroke-width="3"/><path fill="none" stroke="#000000" paint-order="fill stroke markers" d=" M 133.5 209.5 L 171.5 247.5" stroke-linecap="round" stroke-miterlimit="10" stroke-width="3"/><path fill="none" stroke="#000000" paint-order="fill stroke markers" d=" M 171.5 247.5 L 209.5 285.5" stroke-linecap="round" stroke-miterlimit="10" stroke-width="3"/><path fill="none" stroke="#000000" paint-order="fill stroke markers" d=" M 209.5 285.5 L 247.5 323.5" stroke-linecap="round" stroke-miterlimit="10" stroke-width="3"/><path fill="none" stroke="#000000" paint-order="fill stroke markers" d=" M 247.5 95.5 L 209.5 133.5" stroke-linecap="round" stroke-miterlimit="10" stroke-width="3"/><path fill="none" stroke="#000000" paint-order="fill stroke markers" d=" M 209.5 133.5 L 171.5 171.5" stroke-linecap="round" stroke-miterlimit="10" stroke-width="3"/><path fill="none" stroke="#000000" paint-order="fill stroke markers" d=" M 171.5 171.5 L 133.5 209.5" stroke-linecap="round" stroke-miterlimit="10" stroke-width="3"/><path fill="none" stroke="#000000" paint-order="fill stroke markers" d=" M 133.5 209.5 L 95.5 247.5" stroke-linecap="round" stroke-miterlimit="10" stroke-width="3"/><path fill="none" stroke="#000000" paint-order="fill stroke markers" d=" M 95.5 247.5 L 57.5 285.5" stroke-linecap="round" stroke-miterlimit="10" stroke-width="3"/><path fill="none" stroke="#000000" paint-order="fill stroke markers" d=" M 57.5 285.5 L 19.5 323.5" stroke-linecap="round" stroke-miterlimit="10" stroke-width="3"/><path fill="none" stroke="#000000" paint-order="fill stroke markers" d=" M 285.5 57.5 L 247.5 95.5" stroke-linecap="round" stroke-miterlimit="10" stroke-width="3"/><path fill="none" stroke="#000000" paint-order="fill stroke markers" d=" M 323.5 19.5 L 285.5 57.5" stroke-linecap="round" stroke-miterlimit="10" stroke-width="3"/><path fill="none" stroke="#000000" paint-order="fill stroke markers" d=" M 247.5 95.5 L 285.5 133.5" stroke-linecap="round" stroke-miterlimit="10" stroke-width="3"/><path fill="none" stroke="#000000" paint-order="fill stroke markers" d=" M 285.5 133.5 L 323.5 171.5" stroke-linecap="round" stroke-miterlimit="10" stroke-width="3"/><path fill="none" stroke="#000000" paint-order="fill stroke markers" d=" M 323.5 171.5 L 361.5 209.5" stroke-linecap="round" stroke-miterlimit="10" stroke-width="3"/><path fill="none" stroke="#000000" paint-order="fill stroke markers" d=" M 247.5 95.5 L 247.5 133.5" stroke-linecap="round" stroke-miterlimit="10" stroke-width="3"/><path fill="none" stroke="#000000" paint-order="fill stroke markers" d=" M 247.5 133.5 L 247.5 171.5" stroke-linecap="round" stroke-miterlimit="10" stroke-width="3"/><path fill="none" stroke="#000000" paint-order="fill stroke markers" d=" M 247.5 171.5 L 247.5 209.5" stroke-linecap="round" stroke-miterlimit="10" stroke-width="3"/><path fill="none" stroke="#000000" paint-order="fill stroke markers" d=" M 247.5 209.5 L 247.5 247.5" stroke-linecap="round" stroke-miterlimit="10" stroke-width="3"/><path fill="none" stroke="#000000" paint-order="fill stroke markers" d=" M 247.5 247.5 L 247.5 285.5" stroke-linecap="round" stroke-miterlimit="10" stroke-width="3"/><path fill="none" stroke="#000000" paint-order="fill stroke markers" d=" M 247.5 285.5 L 247.5 323.5" stroke-linecap="round" stroke-miterlimit="10" stroke-width="3"/><path fill="none" stroke="#000000" paint-order="fill stroke markers" d=" M 361.5 209.5 L 323.5 247.5" stroke-linecap="round" stroke-miterlimit="10" stroke-width="3"/><path fill="none" stroke="#000000" paint-order="fill stroke markers" d=" M 323.5 247.5 L 285.5 285.5" stroke-linecap="round" stroke-miterlimit="10" stroke-width="3"/><path fill="none" stroke="#000000" paint-order="fill stroke markers" d=" M 285.5 285.5 L 247.5 323.5" stroke-linecap="round" stroke-miterlimit="10" stroke-width="3"/><path fill="none" stroke="#000000" paint-order="fill stroke markers" d=" M 19.5 209.5 L 19.5 247.5" stroke-linecap="round" stroke-miterlimit="10" stroke-width="3"/><path fill="none" stroke="#000000" paint-order="fill stroke markers" d=" M 19.5 247.5 L 19.5 285.5" stroke-linecap="round" stroke-miterlimit="10" stroke-width="3"/><path fill="none" stroke="#000000" paint-order="fill stroke markers" d=" M 19.5 285.5 L 19.5 323.5" stroke-linecap="round" stroke-miterlimit="10" stroke-width="3"/><path fill="none" stroke="#000000" paint-order="fill stroke markers" d=" M 19.5 95.5 L 19.5 133.5" stroke-linecap="round" stroke-miterlimit="10" stroke-width="3"/><path fill="none" stroke="#000000" paint-order="fill stroke markers" d=" M 19.5 133.5 L 19.5 171.5" stroke-linecap="round" stroke-miterlimit="10" stroke-width="3"/><path fill="none" stroke="#000000" paint-order="fill stroke markers" d=" M 19.5 171.5 L 19.5 209.5" stroke-linecap="round" stroke-miterlimit="10" stroke-width="3"/><path fill="none" stroke="#000000" paint-order="fill stroke markers" d=" M 19.5 95.5 L 57.5 95.5" stroke-linecap="round" stroke-miterlimit="10" stroke-width="3"/><path fill="none" stroke="#000000" paint-order="fill stroke markers" d=" M 57.5 95.5 L 95.5 95.5" stroke-linecap="round" stroke-miterlimit="10" stroke-width="3"/><path fill="none" stroke="#000000" paint-order="fill stroke markers" d=" M 95.5 95.5 L 133.5 95.5" stroke-linecap="round" stroke-miterlimit="10" stroke-width="3"/><path fill="none" stroke="#000000" paint-order="fill stroke markers" d=" M 133.5 95.5 L 171.5 95.5" stroke-linecap="round" stroke-miterlimit="10" stroke-width="3"/><path fill="none" stroke="#000000" paint-order="fill stroke markers" d=" M 171.5 95.5 L 209.5 95.5" stroke-linecap="round" stroke-miterlimit="10" stroke-width="3"/><path fill="none" stroke="#000000" paint-order="fill stroke markers" d=" M 209.5 95.5 L 247.5 95.5" stroke-linecap="round" stroke-miterlimit="10" stroke-width="3"/><path fill="none" stroke="#000000" paint-order="fill stroke markers" d=" M 209.5 57.5 L 247.5 95.5" stroke-linecap="round" stroke-miterlimit="10" stroke-width="3"/><path fill="none" stroke="#000000" paint-order="fill stroke markers" d=" M 171.5 19.5 L 209.5 57.5" stroke-linecap="round" stroke-miterlimit="10" stroke-width="3"/><path fill="none" stroke="#000000" paint-order="fill stroke markers" d=" M 133.5 -18.5 L 171.5 19.5" stroke-linecap="round" stroke-miterlimit="10" stroke-width="3"/><path fill="none" stroke="#000000" paint-order="fill stroke markers" d=" M 133.5 -18.5 L 95.5 19.5" stroke-linecap="round" stroke-miterlimit="10" stroke-width="3"/><path fill="none" stroke="#000000" paint-order="fill stroke markers" d=" M 95.5 19.5 L 57.5 57.5" stroke-linecap="round" stroke-miterlimit="10" stroke-width="3"/><path fill="none" stroke="#000000" paint-order="fill stroke markers" d=" M 57.5 57.5 L 19.5 95.5" stroke-linecap="round" stroke-miterlimit="10" stroke-width="3"/><path fill="none" stroke="#000000" paint-order="fill stroke markers" d=" M 247.5 -18.5 L 247.5 19.5" stroke-linecap="round" stroke-miterlimit="10" stroke-width="3"/><path fill="none" stroke="#000000" paint-order="fill stroke markers" d=" M 247.5 19.5 L 247.5 57.5" stroke-linecap="round" stroke-miterlimit="10" stroke-width="3"/><path fill="none" stroke="#000000" paint-order="fill stroke markers" d=" M 247.5 57.5 L 247.5 95.5" stroke-linecap="round" stroke-miterlimit="10" stroke-width="3"/><path fill="none" stroke="#000000" paint-order="fill stroke markers" d=" M 19.5 -18.5 L 19.5 19.5" stroke-linecap="round" stroke-miterlimit="10" stroke-width="3"/><path fill="none" stroke="#000000" paint-order="fill stroke markers" d=" M 19.5 19.5 L 19.5 57.5" stroke-linecap="round" stroke-miterlimit="10" stroke-width="3"/><path fill="none" stroke="#000000" paint-order="fill stroke markers" d=" M 19.5 57.5 L 19.5 95.5" stroke-linecap="round" stroke-miterlimit="10" stroke-width="3"/><path fill="none" stroke="#000000" paint-order="fill stroke markers" d=" M 19.5 95.5 L -18.5 133.5" stroke-linecap="round" stroke-miterlimit="10" stroke-width="3"/><path fill="none" stroke="#000000" paint-order="fill stroke markers" d=" M -18.5 285.5 L 19.5 323.5" stroke-linecap="round" stroke-miterlimit="10" stroke-width="3"/><path fill="none" stroke="#000000" paint-order="fill stroke markers" d=" M 361.5 -18.5 L 323.5 19.5" stroke-linecap="round" stroke-miterlimit="10" stroke-width="3"/><path fill="none" stroke="#000000" paint-order="fill stroke markers" d=" M 247.5 95.5 L 285.5 95.5" stroke-linecap="round" stroke-miterlimit="10" stroke-width="3"/><path fill="none" stroke="#000000" paint-order="fill stroke markers" d=" M 285.5 95.5 L 323.5 95.5" stroke-linecap="round" stroke-miterlimit="10" stroke-width="3"/><path fill="none" stroke="#000000" paint-order="fill stroke markers" d=" M 323.5 95.5 L 361.5 95.5" stroke-linecap="round" stroke-miterlimit="10" stroke-width="3"/><path fill="none" stroke="#444444" paint-order="fill stroke markers" d=" M 95.5 -18.5 L 95.5 19.5" stroke-linecap="square" stroke-miterlimit="10" stroke-dasharray="2.28,5.32"/><path fill="none" stroke="#444444" paint-order="fill stroke markers" d=" M 95.5 19.5 L 95.5 57.5" stroke-linecap="square" stroke-miterlimit="10" stroke-dasharray="2.28,5.32"/><path fill="none" stroke="#444444" paint-order="fill stroke markers" d=" M 95.5 57.5 L 95.5 95.5" stroke-linecap="square" stroke-miterlimit="10" stroke-dasharray="2.28,5.32"/><path fill="none" stroke="#444444" paint-order="fill stroke markers" d=" M 95.5 95.5 L 95.5 133.5" stroke-linecap="square" stroke-miterlimit="10" stroke-dasharray="2.28,5.32"/><path fill="none" stroke="#444444" paint-order="fill stroke markers" d=" M 95.5 133.5 L 95.5 171.5" stroke-linecap="square" stroke-miterlimit="10" stroke-dasharray="2.28,5.32"/><path fill="none" stroke="#444444" paint-order="fill stroke markers" d=" M 95.5 171.5 L 95.5 209.5" stroke-linecap="square" stroke-miterlimit="10" stroke-dasharray="2.28,5.32"/><path fill="none" stroke="#444444" paint-order="fill stroke markers" d=" M 95.5 209.5 L 95.5 247.5" stroke-linecap="square" stroke-miterlimit="10" stroke-dasharray="2.28,5.32"/><path fill="none" stroke="#444444" paint-order="fill stroke markers" d=" M 95.5 247.5 L 95.5 285.5" stroke-linecap="square" stroke-miterlimit="10" stroke-dasharray="2.28,5.32"/><path fill="none" stroke="#444444" paint-order="fill stroke markers" d=" M 95.5 285.5 L 95.5 323.5" stroke-linecap="square" stroke-miterlimit="10" stroke-dasharray="2.28,5.32"/><path fill="none" stroke="#444444" paint-order="fill stroke markers" d=" M -18.5 133.5 L 19.5 133.5" stroke-linecap="square" stroke-miterlimit="10" stroke-dasharray="2.28,5.32"/><path fill="none" stroke="#444444" paint-order="fill stroke markers" d=" M 19.5 133.5 L 57.5 133.5" stroke-linecap="square" stroke-miterlimit="10" stroke-dasharray="2.28,5.32"/><path fill="none" stroke="#444444" paint-order="fill stroke markers" d=" M 57.5 133.5 L 95.5 133.5" stroke-linecap="square" stroke-miterlimit="10" stroke-dasharray="2.28,5.32"/><path fill="none" stroke="#444444" paint-order="fill stroke markers" d=" M 95.5 133.5 L 133.5 133.5" stroke-linecap="square" stroke-miterlimit="10" stroke-dasharray="2.28,5.32"/><path fill="none" stroke="#444444" paint-order="fill stroke markers" d=" M 133.5 133.5 L 171.5 133.5" stroke-linecap="square" stroke-miterlimit="10" stroke-dasharray="2.28,5.32"/><path fill="none" stroke="#444444" paint-order="fill stroke markers" d=" M 171.5 133.5 L 209.5 133.5" stroke-linecap="square" stroke-miterlimit="10" stroke-dasharray="2.28,5.32"/><path fill="none" stroke="#444444" paint-order="fill stroke markers" d=" M 209.5 133.5 L 247.5 133.5" stroke-linecap="square" stroke-miterlimit="10" stroke-dasharray="2.28,5.32"/><path fill="none" stroke="#444444" paint-order="fill stroke markers" d=" M 247.5 133.5 L 285.5 133.5" stroke-linecap="square" stroke-miterlimit="10" stroke-dasharray="2.28,5.32"/><path fill="none" stroke="#444444" paint-order="fill stroke markers" d=" M 285.5 133.5 L 323.5 133.5" stroke-linecap="square" stroke-miterlimit="10" stroke-dasharray="2.28,5.32"/><path fill="none" stroke="#444444" paint-order="fill stroke markers" d=" M 323.5 133.5 L 361.5 133.5" stroke-linecap="square" stroke-miterlimit="10" stroke-dasharray="2.28,5.32"/><path fill="none" stroke="#444444" paint-order="fill stroke markers" d=" M 95.5 323.5 L 95.5 361.5" stroke-linecap="square" stroke-miterlimit="10" stroke-dasharray="2.28,5.32"/><path fill="none" stroke="#000000" paint-order="fill stroke markers" d=" M 19.5 323.5 L 19.5 361.5" stroke-linecap="round" stroke-miterlimit="10" stroke-width="3"/><path fill="none" stroke="#000000" paint-order="fill stroke markers" d=" M 19.5 323.5 L 57.5 361.5" stroke-linecap="round" stroke-miterlimit="10" stroke-width="3"/><path fill="none" stroke="#000000" paint-order="fill stroke markers" d=" M 19.5 323.5 L 57.5 323.5" stroke-linecap="round" stroke-miterlimit="10" stroke-width="3"/><path fill="none" stroke="#000000" paint-order="fill stroke markers" d=" M 57.5 323.5 L 95.5 323.5" stroke-linecap="round" stroke-miterlimit="10" stroke-width="3"/><path fill="none" stroke="#000000" paint-order="fill stroke markers" d=" M 95.5 323.5 L 133.5 323.5" stroke-linecap="round" stroke-miterlimit="10" stroke-width="3"/><path fill="none" stroke="#000000" paint-order="fill stroke markers" d=" M 133.5 323.5 L 171.5 323.5" stroke-linecap="round" stroke-miterlimit="10" stroke-width="3"/><path fill="none" stroke="#000000" paint-order="fill stroke markers" d=" M 171.5 323.5 L 209.5 323.5" stroke-linecap="round" stroke-miterlimit="10" stroke-width="3"/><path fill="none" stroke="#000000" paint-order="fill stroke markers" d=" M 209.5 323.5 L 247.5 323.5" stroke-linecap="round" stroke-miterlimit="10" stroke-width="3"/><path fill="none" stroke="#000000" paint-order="fill stroke markers" d=" M 247.5 323.5 L 285.5 323.5" stroke-linecap="round" stroke-miterlimit="10" stroke-width="3"/><path fill="none" stroke="#000000" paint-order="fill stroke markers" d=" M 285.5 323.5 L 323.5 323.5" stroke-linecap="round" stroke-miterlimit="10" stroke-width="3"/><path fill="none" stroke="#000000" paint-order="fill stroke markers" d=" M -18.5 323.5 L 19.5 323.5" stroke-linecap="round" stroke-miterlimit="10" stroke-width="3"/><path fill="none" stroke="#000000" paint-order="fill stroke markers" d=" M 323.5 323.5 L 361.5 323.5" stroke-linecap="round" stroke-miterlimit="10" stroke-width="3"/><path fill="none" stroke="#000000" paint-order="fill stroke markers" d=" M 133.5 323.5 L 133.5 361.5" stroke-linecap="round" stroke-miterlimit="10" stroke-width="3"/><path fill="none" stroke="#000000" paint-order="fill stroke markers" d=" M 247.5 323.5 L 209.5 361.5" stroke-linecap="round" stroke-miterlimit="10" stroke-width="3"/><path fill="none" stroke="#000000" paint-order="fill stroke markers" d=" M 247.5 323.5 L 247.5 361.5" stroke-linecap="round" stroke-miterlimit="10" stroke-width="3"/><path fill="none" stroke="#000000" paint-order="fill stroke markers" d=" M 247.5 323.5 L 285.5 361.5" stroke-linecap="round" stroke-miterlimit="10" stroke-width="3"/><path fill="#000000" stroke="none" paint-order="stroke fill markers" d=" M 21.6 19.5 A 2.1 2.1 0 1 0 21.59999895000009 19.50209999965"/><path fill="#000000" stroke="none" paint-order="stroke fill markers" d=" M 59.6 19.5 A 2.1 2.1 0 1 0 59.599998950000085 19.50209999965"/><path fill="#000000" stroke="none" paint-order="stroke fill markers" d=" M 59.6 57.5 A 2.1 2.1 0 1 0 59.599998950000085 57.50209999965"/><path fill="#000000" stroke="none" paint-order="stroke fill markers" d=" M 21.6 57.5 A 2.1 2.1 0 1 0 21.59999895000009 57.50209999965"/><path fill="#000000" stroke="none" paint-order="stroke fill markers" d=" M 97.6 19.5 A 2.1 2.1 0 1 0 97.59999895000009 19.50209999965"/><path fill="#000000" stroke="none" paint-order="stroke fill markers" d=" M 97.6 57.5 A 2.1 2.1 0 1 0 97.59999895000009 57.50209999965"/><path fill="#000000" stroke="none" paint-order="stroke fill markers" d=" M 135.6 19.5 A 2.1 2.1 0 1 0 135.5999989500001 19.50209999965"/><path fill="#000000" stroke="none" paint-order="stroke fill markers" d=" M 135.6 57.5 A 2.1 2.1 0 1 0 135.5999989500001 57.50209999965"/><path fill="#000000" stroke="none" paint-order="stroke fill markers" d=" M 173.6 19.5 A 2.1 2.1 0 1 0 173.5999989500001 19.50209999965"/><path fill="#000000" stroke="none" paint-order="stroke fill markers" d=" M 173.6 57.5 A 2.1 2.1 0 1 0 173.5999989500001 57.50209999965"/><path fill="#000000" stroke="none" paint-order="stroke fill markers" d=" M 211.6 19.5 A 2.1 2.1 0 1 0 211.5999989500001 19.50209999965"/><path fill="#000000" stroke="none" paint-order="stroke fill markers" d=" M 211.6 57.5 A 2.1 2.1 0 1 0 211.5999989500001 57.50209999965"/><path fill="#000000" stroke="none" paint-order="stroke fill markers" d=" M 249.6 19.5 A 2.1 2.1 0 1 0 249.5999989500001 19.50209999965"/><path fill="#000000" stroke="none" paint-order="stroke fill markers" d=" M 249.6 57.5 A 2.1 2.1 0 1 0 249.5999989500001 57.50209999965"/><path fill="#000000" stroke="none" paint-order="stroke fill markers" d=" M 287.6 19.5 A 2.1 2.1 0 1 0 287.5999989500001 19.50209999965"/><path fill="#000000" stroke="none" paint-order="stroke fill markers" d=" M 287.6 57.5 A 2.1 2.1 0 1 0 287.5999989500001 57.50209999965"/><path fill="#000000" stroke="none" paint-order="stroke fill markers" d=" M 325.6 19.5 A 2.1 2.1 0 1 0 325.5999989500001 19.50209999965"/><path fill="#000000" stroke="none" paint-order="stroke fill markers" d=" M 325.6 57.5 A 2.1 2.1 0 1 0 325.5999989500001 57.50209999965"/><path fill="#000000" stroke="none" paint-order="stroke fill markers" d=" M 59.6 95.5 A 2.1 2.1 0 1 0 59.599998950000085 95.50209999965"/><path fill="#000000" stroke="none" paint-order="stroke fill markers" d=" M 21.6 95.5 A 2.1 2.1 0 1 0 21.59999895000009 95.50209999965"/><path fill="#000000" stroke="none" paint-order="stroke fill markers" d=" M 97.6 95.5 A 2.1 2.1 0 1 0 97.59999895000009 95.50209999965"/><path fill="#000000" stroke="none" paint-order="stroke fill markers" d=" M 135.6 95.5 A 2.1 2.1 0 1 0 135.5999989500001 95.50209999965"/><path fill="#000000" stroke="none" paint-order="stroke fill markers" d=" M 173.6 95.5 A 2.1 2.1 0 1 0 173.5999989500001 95.50209999965"/><path fill="#000000" stroke="none" paint-order="stroke fill markers" d=" M 211.6 95.5 A 2.1 2.1 0 1 0 211.5999989500001 95.50209999965"/><path fill="#000000" stroke="none" paint-order="stroke fill markers" d=" M 249.6 95.5 A 2.1 2.1 0 1 0 249.5999989500001 95.50209999965"/><path fill="#000000" stroke="none" paint-order="stroke fill markers" d=" M 287.6 95.5 A 2.1 2.1 0 1 0 287.5999989500001 95.50209999965"/><path fill="#000000" stroke="none" paint-order="stroke fill markers" d=" M 325.6 95.5 A 2.1 2.1 0 1 0 325.5999989500001 95.50209999965"/><path fill="#000000" stroke="none" paint-order="stroke fill markers" d=" M 59.6 133.5 A 2.1 2.1 0 1 0 59.599998950000085 133.50209999965"/><path fill="#000000" stroke="none" paint-order="stroke fill markers" d=" M 21.6 133.5 A 2.1 2.1 0 1 0 21.59999895000009 133.50209999965"/><path fill="#000000" stroke="none" paint-order="stroke fill markers" d=" M 97.6 133.5 A 2.1 2.1 0 1 0 97.59999895000009 133.50209999965"/><path fill="#000000" stroke="none" paint-order="stroke fill markers" d=" M 135.6 133.5 A 2.1 2.1 0 1 0 135.5999989500001 133.50209999965"/><path fill="#000000" stroke="none" paint-order="stroke fill markers" d=" M 173.6 133.5 A 2.1 2.1 0 1 0 173.5999989500001 133.50209999965"/><path fill="#000000" stroke="none" paint-order="stroke fill markers" d=" M 211.6 133.5 A 2.1 2.1 0 1 0 211.5999989500001 133.50209999965"/><path fill="#000000" stroke="none" paint-order="stroke fill markers" d=" M 249.6 133.5 A 2.1 2.1 0 1 0 249.5999989500001 133.50209999965"/><path fill="#000000" stroke="none" paint-order="stroke fill markers" d=" M 287.6 133.5 A 2.1 2.1 0 1 0 287.5999989500001 133.50209999965"/><path fill="#000000" stroke="none" paint-order="stroke fill markers" d=" M 325.6 133.5 A 2.1 2.1 0 1 0 325.5999989500001 133.50209999965"/><path fill="#000000" stroke="none" paint-order="stroke fill markers" d=" M 59.6 171.5 A 2.1 2.1 0 1 0 59.599998950000085 171.50209999965"/><path fill="#000000" stroke="none" paint-order="stroke fill markers" d=" M 21.6 171.5 A 2.1 2.1 0 1 0 21.59999895000009 171.50209999965"/><path fill="#000000" stroke="none" paint-order="stroke fill markers" d=" M 97.6 171.5 A 2.1 2.1 0 1 0 97.59999895000009 171.50209999965"/><path fill="#000000" stroke="none" paint-order="stroke fill markers" d=" M 135.6 171.5 A 2.1 2.1 0 1 0 135.5999989500001 171.50209999965"/><path fill="#000000" stroke="none" paint-order="stroke fill markers" d=" M 173.6 171.5 A 2.1 2.1 0 1 0 173.5999989500001 171.50209999965"/><path fill="#000000" stroke="none" paint-order="stroke fill markers" d=" M 211.6 171.5 A 2.1 2.1 0 1 0 211.5999989500001 171.50209999965"/><path fill="#000000" stroke="none" paint-order="stroke fill markers" d=" M 249.6 171.5 A 2.1 2.1 0 1 0 249.5999989500001 171.50209999965"/><path fill="#000000" stroke="none" paint-order="stroke fill markers" d=" M 287.6 171.5 A 2.1 2.1 0 1 0 287.5999989500001 171.50209999965"/><path fill="#000000" stroke="none" paint-order="stroke fill markers" d=" M 325.6 171.5 A 2.1 2.1 0 1 0 325.5999989500001 171.50209999965"/><path fill="#000000" stroke="none" paint-order="stroke fill markers" d=" M 59.6 209.5 A 2.1 2.1 0 1 0 59.599998950000085 209.50209999965"/><path fill="#000000" stroke="none" paint-order="stroke fill markers" d=" M 21.6 209.5 A 2.1 2.1 0 1 0 21.59999895000009 209.50209999965"/><path fill="#000000" stroke="none" paint-order="stroke fill markers" d=" M 97.6 209.5 A 2.1 2.1 0 1 0 97.59999895000009 209.50209999965"/><path fill="#000000" stroke="none" paint-order="stroke fill markers" d=" M 135.6 209.5 A 2.1 2.1 0 1 0 135.5999989500001 209.50209999965"/><path fill="#000000" stroke="none" paint-order="stroke fill markers" d=" M 173.6 209.5 A 2.1 2.1 0 1 0 173.5999989500001 209.50209999965"/><path fill="#000000" stroke="none" paint-order="stroke fill markers" d=" M 211.6 209.5 A 2.1 2.1 0 1 0 211.5999989500001 209.50209999965"/><path fill="#000000" stroke="none" paint-order="stroke fill markers" d=" M 249.6 209.5 A 2.1 2.1 0 1 0 249.5999989500001 209.50209999965"/><path fill="#000000" stroke="none" paint-order="stroke fill markers" d=" M 287.6 209.5 A 2.1 2.1 0 1 0 287.5999989500001 209.50209999965"/><path fill="#000000" stroke="none" paint-order="stroke fill markers" d=" M 325.6 209.5 A 2.1 2.1 0 1 0 325.5999989500001 209.50209999965"/><path fill="#000000" stroke="none" paint-order="stroke fill markers" d=" M 59.6 247.5 A 2.1 2.1 0 1 0 59.599998950000085 247.50209999965"/><path fill="#000000" stroke="none" paint-order="stroke fill markers" d=" M 21.6 247.5 A 2.1 2.1 0 1 0 21.59999895000009 247.50209999965"/><path fill="#000000" stroke="none" paint-order="stroke fill markers" d=" M 97.6 247.5 A 2.1 2.1 0 1 0 97.59999895000009 247.50209999965"/><path fill="#000000" stroke="none" paint-order="stroke fill markers" d=" M 135.6 247.5 A 2.1 2.1 0 1 0 135.5999989500001 247.50209999965"/><path fill="#000000" stroke="none" paint-order="stroke fill markers" d=" M 173.6 247.5 A 2.1 2.1 0 1 0 173.5999989500001 247.50209999965"/><path fill="#000000" stroke="none" paint-order="stroke fill markers" d=" M 211.6 247.5 A 2.1 2.1 0 1 0 211.5999989500001 247.50209999965"/><path fill="#000000" stroke="none" paint-order="stroke fill markers" d=" M 249.6 247.5 A 2.1 2.1 0 1 0 249.5999989500001 247.50209999965"/><path fill="#000000" stroke="none" paint-order="stroke fill markers" d=" M 287.6 247.5 A 2.1 2.1 0 1 0 287.5999989500001 247.50209999965"/><path fill="#000000" stroke="none" paint-order="stroke fill markers" d=" M 325.6 247.5 A 2.1 2.1 0 1 0 325.5999989500001 247.50209999965"/><path fill="#000000" stroke="none" paint-order="stroke fill markers" d=" M 59.6 285.5 A 2.1 2.1 0 1 0 59.599998950000085 285.50209999965"/><path fill="#000000" stroke="none" paint-order="stroke fill markers" d=" M 21.6 285.5 A 2.1 2.1 0 1 0 21.59999895000009 285.50209999965"/><path fill="#000000" stroke="none" paint-order="stroke fill markers" d=" M 97.6 285.5 A 2.1 2.1 0 1 0 97.59999895000009 285.50209999965"/><path fill="#000000" stroke="none" paint-order="stroke fill markers" d=" M 135.6 285.5 A 2.1 2.1 0 1 0 135.5999989500001 285.50209999965"/><path fill="#000000" stroke="none" paint-order="stroke fill markers" d=" M 173.6 285.5 A 2.1 2.1 0 1 0 173.5999989500001 285.50209999965"/><path fill="#000000" stroke="none" paint-order="stroke fill markers" d=" M 211.6 285.5 A 2.1 2.1 0 1 0 211.5999989500001 285.50209999965"/><path fill="#000000" stroke="none" paint-order="stroke fill markers" d=" M 249.6 285.5 A 2.1 2.1 0 1 0 249.5999989500001 285.50209999965"/><path fill="#000000" stroke="none" paint-order="stroke fill markers" d=" M 287.6 285.5 A 2.1 2.1 0 1 0 287.5999989500001 285.50209999965"/><path fill="#000000" stroke="none" paint-order="stroke fill markers" d=" M 325.6 285.5 A 2.1 2.1 0 1 0 325.5999989500001 285.50209999965"/><path fill="#000000" stroke="none" paint-order="stroke fill markers" d=" M 59.6 323.5 A 2.1 2.1 0 1 0 59.599998950000085 323.50209999965"/><path fill="#000000" stroke="none" paint-order="stroke fill markers" d=" M 21.6 323.5 A 2.1 2.1 0 1 0 21.59999895000009 323.50209999965"/><path fill="#000000" stroke="none" paint-order="stroke fill markers" d=" M 97.6 323.5 A 2.1 2.1 0 1 0 97.59999895000009 323.50209999965"/><path fill="#000000" stroke="none" paint-order="stroke fill markers" d=" M 135.6 323.5 A 2.1 2.1 0 1 0 135.5999989500001 323.50209999965"/><path fill="#000000" stroke="none" paint-order="stroke fill markers" d=" M 173.6 323.5 A 2.1 2.1 0 1 0 173.5999989500001 323.50209999965"/><path fill="#000000" stroke="none" paint-order="stroke fill markers" d=" M 211.6 323.5 A 2.1 2.1 0 1 0 211.5999989500001 323.50209999965"/><path fill="#000000" stroke="none" paint-order="stroke fill markers" d=" M 249.6 323.5 A 2.1 2.1 0 1 0 249.5999989500001 323.50209999965"/><path fill="#000000" stroke="none" paint-order="stroke fill markers" d=" M 287.6 323.5 A 2.1 2.1 0 1 0 287.5999989500001 323.50209999965"/><path fill="#000000" stroke="none" paint-order="stroke fill markers" d=" M 325.6 323.5 A 2.1 2.1 0 1 0 325.5999989500001 323.50209999965"/><path fill="#ffffff" stroke="#000000" paint-order="fill stroke markers" d=" M 89.8 152.5 A 13.299999999999999 13.299999999999999 0 1 1 89.79999335000055 152.48670000221665" stroke-miterlimit="10"/><path fill="#ffffff" stroke="#000000" paint-order="fill stroke markers" d=" M 203.8 152.5 A 13.299999999999999 13.299999999999999 0 1 1 203.79999335000056 152.48670000221665" stroke-miterlimit="10"/><path fill="#ffffff" stroke="#000000" paint-order="fill stroke markers" d=" M 89.8 266.5 A 13.299999999999999 13.299999999999999 0 1 1 89.79999335000055 266.48670000221665" stroke-miterlimit="10"/><path fill="#ffffff" stroke="#000000" paint-order="fill stroke markers" d=" M 203.8 266.5 A 13.299999999999999 13.299999999999999 0 1 1 203.79999335000056 266.48670000221665" stroke-miterlimit="10"/><path fill="#ffffff" stroke="#000000" paint-order="fill stroke markers" d=" M 32.8 95.5 A 13.299999999999999 13.299999999999999 0 1 1 32.799993350000555 95.48670000221666" stroke-miterlimit="10"/><path fill="#ffffff" stroke="#000000" paint-order="fill stroke markers" d=" M 146.8 95.5 A 13.299999999999999 13.299999999999999 0 1 1 146.79999335000056 95.48670000221666" stroke-miterlimit="10"/><path fill="#ffffff" stroke="#000000" paint-order="fill stroke markers" d=" M 108.8 133.5 A 13.299999999999999 13.299999999999999 0 1 1 108.79999335000055 133.48670000221665" stroke-miterlimit="10"/><path fill="#ffffff" stroke="#000000" paint-order="fill stroke markers" d=" M 184.8 133.5 A 13.299999999999999 13.299999999999999 0 1 1 184.79999335000056 133.48670000221665" stroke-miterlimit="10"/><path fill="#ffffff" stroke="#000000" paint-order="fill stroke markers" d=" M 222.8 171.5 A 13.299999999999999 13.299999999999999 0 1 1 222.79999335000056 171.48670000221665" stroke-miterlimit="10"/><path fill="#ffffff" stroke="#000000" paint-order="fill stroke markers" d=" M 298.8 171.5 A 13.299999999999999 13.299999999999999 0 1 1 298.79999335000053 171.48670000221665" stroke-miterlimit="10"/><path fill="#ffffff" stroke="#000000" paint-order="fill stroke markers" d=" M 146.8 209.5 A 13.299999999999999 13.299999999999999 0 1 1 146.79999335000056 209.48670000221665" stroke-miterlimit="10"/><path fill="#ffffff" stroke="#000000" paint-order="fill stroke markers" d=" M 260.8 209.5 A 13.299999999999999 13.299999999999999 0 1 1 260.79999335000053 209.48670000221665" stroke-miterlimit="10"/><path fill="#ffffff" stroke="#000000" paint-order="fill stroke markers" d=" M 222.8 247.5 A 13.299999999999999 13.299999999999999 0 1 1 222.79999335000056 247.48670000221665" stroke-miterlimit="10"/><path fill="#ffffff" stroke="#000000" paint-order="fill stroke markers" d=" M 298.8 247.5 A 13.299999999999999 13.299999999999999 0 1 1 298.79999335000053 247.48670000221665" stroke-miterlimit="10"/><path fill="#ffffff" stroke="#000000" paint-order="fill stroke markers" d=" M 108.8 285.5 A 13.299999999999999 13.299999999999999 0 1 1 108.79999335000055 285.48670000221665" stroke-miterlimit="10"/><path fill="#ffffff" stroke="#000000" paint-order="fill stroke markers" d=" M 184.8 285.5 A 13.299999999999999 13.299999999999999 0 1 1 184.79999335000056 285.48670000221665" stroke-miterlimit="10"/><path fill="#ffffff" stroke="#000000" paint-order="fill stroke markers" d=" M 89.8 95.5 A 13.299999999999999 13.299999999999999 0 1 1 89.79999335000055 95.48670000221666" stroke-miterlimit="10"/><path fill="#ffffff" stroke="#000000" paint-order="fill stroke markers" d=" M 203.8 95.5 A 13.299999999999999 13.299999999999999 0 1 1 203.79999335000056 95.48670000221666" stroke-miterlimit="10"/><path fill="#ffffff" stroke="#000000" paint-order="fill stroke markers" d=" M 203.8 209.5 A 13.299999999999999 13.299999999999999 0 1 1 203.79999335000056 209.48670000221665" stroke-miterlimit="10"/><path fill="#ffffff" stroke="#000000" paint-order="fill stroke markers" d=" M 317.8 209.5 A 13.299999999999999 13.299999999999999 0 1 1 317.79999335000053 209.48670000221665" stroke-miterlimit="10"/><path fill="#ffffff" stroke="#000000" paint-order="fill stroke markers" d=" M 146.8 38.5 A 13.299999999999999 13.299999999999999 0 1 1 146.79999335000056 38.48670000221666" stroke-miterlimit="10"/><path fill="#ffffff" stroke="#000000" paint-order="fill stroke markers" d=" M 146.8 152.5 A 13.299999999999999 13.299999999999999 0 1 1 146.79999335000056 152.48670000221665" stroke-miterlimit="10"/><path fill="#ffffff" stroke="#000000" paint-order="fill stroke markers" d=" M 260.8 152.5 A 13.299999999999999 13.299999999999999 0 1 1 260.79999335000053 152.48670000221665" stroke-miterlimit="10"/><path fill="#ffffff" stroke="#000000" paint-order="fill stroke markers" d=" M 260.8 266.5 A 13.299999999999999 13.299999999999999 0 1 1 260.79999335000053 266.48670000221665" stroke-miterlimit="10"/><text fill="none" stroke="rgb(255,255,255)" font-family="Helvetica,Arial" font-size="15.200000000000001px" font-style="normal" font-weight="normal" text-decoration="normal" x="76.5" y="157.896" text-anchor="middle" dominant-baseline="alphabetic" stroke-opacity="0" stroke-miterlimit="10">15</text><text fill="#000000" stroke="none" font-family="Helvetica,Arial" font-size="15.200000000000001px" font-style="normal" font-weight="normal" text-decoration="normal" x="76.5" y="157.896" text-anchor="middle" dominant-baseline="alphabetic">15</text><text fill="none" stroke="rgb(255,255,255)" font-family="Helvetica,Arial" font-size="15.200000000000001px" font-style="normal" font-weight="normal" text-decoration="normal" x="190.5" y="157.896" text-anchor="middle" dominant-baseline="alphabetic" stroke-opacity="0" stroke-miterlimit="10">51</text><text fill="#000000" stroke="none" font-family="Helvetica,Arial" font-size="15.200000000000001px" font-style="normal" font-weight="normal" text-decoration="normal" x="190.5" y="157.896" text-anchor="middle" dominant-baseline="alphabetic">51</text><text fill="none" stroke="rgb(255,255,255)" font-family="Helvetica,Arial" font-size="15.200000000000001px" font-style="normal" font-weight="normal" text-decoration="normal" x="76.5" y="271.896" text-anchor="middle" dominant-baseline="alphabetic" stroke-opacity="0" stroke-miterlimit="10">47</text><text fill="#000000" stroke="none" font-family="Helvetica,Arial" font-size="15.200000000000001px" font-style="normal" font-weight="normal" text-decoration="normal" x="76.5" y="271.896" text-anchor="middle" dominant-baseline="alphabetic">47</text><text fill="none" stroke="rgb(255,255,255)" font-family="Helvetica,Arial" font-size="15.200000000000001px" font-style="normal" font-weight="normal" text-decoration="normal" x="190.5" y="271.896" text-anchor="middle" dominant-baseline="alphabetic" stroke-opacity="0" stroke-miterlimit="10">45</text><text fill="#000000" stroke="none" font-family="Helvetica,Arial" font-size="15.200000000000001px" font-style="normal" font-weight="normal" text-decoration="normal" x="190.5" y="271.896" text-anchor="middle" dominant-baseline="alphabetic">45</text><text fill="none" stroke="rgb(255,255,255)" font-family="Helvetica,Arial" font-size="15.200000000000001px" font-style="normal" font-weight="normal" text-decoration="normal" x="19.5" y="100.896" text-anchor="middle" dominant-baseline="alphabetic" stroke-opacity="0" stroke-miterlimit="10">0</text><text fill="#000000" stroke="none" font-family="Helvetica,Arial" font-size="15.200000000000001px" font-style="normal" font-weight="normal" text-decoration="normal" x="19.5" y="100.896" text-anchor="middle" dominant-baseline="alphabetic">0</text><text fill="none" stroke="rgb(255,255,255)" font-family="Helvetica,Arial" font-size="15.200000000000001px" font-style="normal" font-weight="normal" text-decoration="normal" x="133.5" y="100.896" text-anchor="middle" dominant-baseline="alphabetic" stroke-opacity="0" stroke-miterlimit="10">1</text><text fill="#000000" stroke="none" font-family="Helvetica,Arial" font-size="15.200000000000001px" font-style="normal" font-weight="normal" text-decoration="normal" x="133.5" y="100.896" text-anchor="middle" dominant-baseline="alphabetic">1</text><text fill="none" stroke="rgb(255,255,255)" font-family="Helvetica,Arial" font-size="15.200000000000001px" font-style="normal" font-weight="normal" text-decoration="normal" x="95.5" y="138.896" text-anchor="middle" dominant-baseline="alphabetic" stroke-opacity="0" stroke-miterlimit="10">2</text><text fill="#000000" stroke="none" font-family="Helvetica,Arial" font-size="15.200000000000001px" font-style="normal" font-weight="normal" text-decoration="normal" x="95.5" y="138.896" text-anchor="middle" dominant-baseline="alphabetic">2</text><text fill="none" stroke="rgb(255,255,255)" font-family="Helvetica,Arial" font-size="15.200000000000001px" font-style="normal" font-weight="normal" text-decoration="normal" x="171.5" y="138.896" text-anchor="middle" dominant-baseline="alphabetic" stroke-opacity="0" stroke-miterlimit="10">10</text><text fill="#000000" stroke="none" font-family="Helvetica,Arial" font-size="15.200000000000001px" font-style="normal" font-weight="normal" text-decoration="normal" x="171.5" y="138.896" text-anchor="middle" dominant-baseline="alphabetic">10</text><text fill="none" stroke="rgb(255,255,255)" font-family="Helvetica,Arial" font-size="15.200000000000001px" font-style="normal" font-weight="normal" text-decoration="normal" x="209.5" y="176.896" text-anchor="middle" dominant-baseline="alphabetic" stroke-opacity="0" stroke-miterlimit="10">39</text><text fill="#000000" stroke="none" font-family="Helvetica,Arial" font-size="15.200000000000001px" font-style="normal" font-weight="normal" text-decoration="normal" x="209.5" y="176.896" text-anchor="middle" dominant-baseline="alphabetic">39</text><text fill="none" stroke="rgb(255,255,255)" font-family="Helvetica,Arial" font-size="15.200000000000001px" font-style="normal" font-weight="normal" text-decoration="normal" x="285.5" y="176.896" text-anchor="middle" dominant-baseline="alphabetic" stroke-opacity="0" stroke-miterlimit="10">43</text><text fill="#000000" stroke="none" font-family="Helvetica,Arial" font-size="15.200000000000001px" font-style="normal" font-weight="normal" text-decoration="normal" x="285.5" y="176.896" text-anchor="middle" dominant-baseline="alphabetic">43</text><text fill="none" stroke="rgb(255,255,255)" font-family="Helvetica,Arial" font-size="15.200000000000001px" font-style="normal" font-weight="normal" text-decoration="normal" x="133.5" y="214.896" text-anchor="middle" dominant-baseline="alphabetic" stroke-opacity="0" stroke-miterlimit="10">30</text><text fill="#000000" stroke="none" font-family="Helvetica,Arial" font-size="15.200000000000001px" font-style="normal" font-weight="normal" text-decoration="normal" x="133.5" y="214.896" text-anchor="middle" dominant-baseline="alphabetic">30</text><text fill="none" stroke="rgb(255,255,255)" font-family="Helvetica,Arial" font-size="15.200000000000001px" font-style="normal" font-weight="normal" text-decoration="normal" x="247.5" y="214.896" text-anchor="middle" dominant-baseline="alphabetic" stroke-opacity="0" stroke-miterlimit="10">31</text><text fill="#000000" stroke="none" font-family="Helvetica,Arial" font-size="15.200000000000001px" font-style="normal" font-weight="normal" text-decoration="normal" x="247.5" y="214.896" text-anchor="middle" dominant-baseline="alphabetic">31</text><text fill="none" stroke="rgb(255,255,255)" font-family="Helvetica,Arial" font-size="15.200000000000001px" font-style="normal" font-weight="normal" text-decoration="normal" x="209.5" y="252.896" text-anchor="middle" dominant-baseline="alphabetic" stroke-opacity="0" stroke-miterlimit="10">32</text><text fill="#000000" stroke="none" font-family="Helvetica,Arial" font-size="15.200000000000001px" font-style="normal" font-weight="normal" text-decoration="normal" x="209.5" y="252.896" text-anchor="middle" dominant-baseline="alphabetic">32</text><text fill="none" stroke="rgb(255,255,255)" font-family="Helvetica,Arial" font-size="15.200000000000001px" font-style="normal" font-weight="normal" text-decoration="normal" x="285.5" y="252.896" text-anchor="middle" dominant-baseline="alphabetic" stroke-opacity="0" stroke-miterlimit="10">40</text><text fill="#000000" stroke="none" font-family="Helvetica,Arial" font-size="15.200000000000001px" font-style="normal" font-weight="normal" text-decoration="normal" x="285.5" y="252.896" text-anchor="middle" dominant-baseline="alphabetic">40</text><text fill="none" stroke="rgb(255,255,255)" font-family="Helvetica,Arial" font-size="15.200000000000001px" font-style="normal" font-weight="normal" text-decoration="normal" x="95.5" y="290.896" text-anchor="middle" dominant-baseline="alphabetic" stroke-opacity="0" stroke-miterlimit="10">34</text><text fill="#000000" stroke="none" font-family="Helvetica,Arial" font-size="15.200000000000001px" font-style="normal" font-weight="normal" text-decoration="normal" x="95.5" y="290.896" text-anchor="middle" dominant-baseline="alphabetic">34</text><text fill="none" stroke="rgb(255,255,255)" font-family="Helvetica,Arial" font-size="15.200000000000001px" font-style="normal" font-weight="normal" text-decoration="normal" x="171.5" y="290.896" text-anchor="middle" dominant-baseline="alphabetic" stroke-opacity="0" stroke-miterlimit="10">33</text><text fill="#000000" stroke="none" font-family="Helvetica,Arial" font-size="15.200000000000001px" font-style="normal" font-weight="normal" text-decoration="normal" x="171.5" y="290.896" text-anchor="middle" dominant-baseline="alphabetic">33</text><text fill="none" stroke="rgb(255,255,255)" font-family="Helvetica,Arial" font-size="15.200000000000001px" font-style="normal" font-weight="normal" text-decoration="normal" x="76.5" y="100.896" text-anchor="middle" dominant-baseline="alphabetic" stroke-opacity="0" stroke-miterlimit="10">28</text><text fill="#000000" stroke="none" font-family="Helvetica,Arial" font-size="15.200000000000001px" font-style="normal" font-weight="normal" text-decoration="normal" x="76.5" y="100.896" text-anchor="middle" dominant-baseline="alphabetic">28</text><text fill="none" stroke="rgb(255,255,255)" font-family="Helvetica,Arial" font-size="15.200000000000001px" font-style="normal" font-weight="normal" text-decoration="normal" x="190.5" y="100.896" text-anchor="middle" dominant-baseline="alphabetic" stroke-opacity="0" stroke-miterlimit="10">26</text><text fill="#000000" stroke="none" font-family="Helvetica,Arial" font-size="15.200000000000001px" font-style="normal" font-weight="normal" text-decoration="normal" x="190.5" y="100.896" text-anchor="middle" dominant-baseline="alphabetic">26</text><text fill="none" stroke="rgb(255,255,255)" font-family="Helvetica,Arial" font-size="15.200000000000001px" font-style="normal" font-weight="normal" text-decoration="normal" x="190.5" y="214.896" text-anchor="middle" dominant-baseline="alphabetic" stroke-opacity="0" stroke-miterlimit="10">58</text><text fill="#000000" stroke="none" font-family="Helvetica,Arial" font-size="15.200000000000001px" font-style="normal" font-weight="normal" text-decoration="normal" x="190.5" y="214.896" text-anchor="middle" dominant-baseline="alphabetic">58</text><text fill="none" stroke="rgb(255,255,255)" font-family="Helvetica,Arial" font-size="15.200000000000001px" font-style="normal" font-weight="normal" text-decoration="normal" x="304.5" y="214.896" text-anchor="middle" dominant-baseline="alphabetic" stroke-opacity="0" stroke-miterlimit="10">56</text><text fill="#000000" stroke="none" font-family="Helvetica,Arial" font-size="15.200000000000001px" font-style="normal" font-weight="normal" text-decoration="normal" x="304.5" y="214.896" text-anchor="middle" dominant-baseline="alphabetic">56</text><text fill="none" stroke="rgb(255,255,255)" font-family="Helvetica,Arial" font-size="15.200000000000001px" font-style="normal" font-weight="normal" text-decoration="normal" x="133.5" y="43.896" text-anchor="middle" dominant-baseline="alphabetic" stroke-opacity="0" stroke-miterlimit="10">29</text><text fill="#000000" stroke="none" font-family="Helvetica,Arial" font-size="15.200000000000001px" font-style="normal" font-weight="normal" text-decoration="normal" x="133.5" y="43.896" text-anchor="middle" dominant-baseline="alphabetic">29</text><text fill="none" stroke="rgb(255,255,255)" font-family="Helvetica,Arial" font-size="15.200000000000001px" font-style="normal" font-weight="normal" text-decoration="normal" x="133.5" y="157.896" text-anchor="middle" dominant-baseline="alphabetic" stroke-opacity="0" stroke-miterlimit="10">27</text><text fill="#000000" stroke="none" font-family="Helvetica,Arial" font-size="15.200000000000001px" font-style="normal" font-weight="normal" text-decoration="normal" x="133.5" y="157.896" text-anchor="middle" dominant-baseline="alphabetic">27</text><text fill="none" stroke="rgb(255,255,255)" font-family="Helvetica,Arial" font-size="15.200000000000001px" font-style="normal" font-weight="normal" text-decoration="normal" x="247.5" y="157.896" text-anchor="middle" dominant-baseline="alphabetic" stroke-opacity="0" stroke-miterlimit="10">59</text><text fill="#000000" stroke="none" font-family="Helvetica,Arial" font-size="15.200000000000001px" font-style="normal" font-weight="normal" text-decoration="normal" x="247.5" y="157.896" text-anchor="middle" dominant-baseline="alphabetic">59</text><text fill="none" stroke="rgb(255,255,255)" font-family="Helvetica,Arial" font-size="15.200000000000001px" font-style="normal" font-weight="normal" text-decoration="normal" x="247.5" y="271.896" text-anchor="middle" dominant-baseline="alphabetic" stroke-opacity="0" stroke-miterlimit="10">57</text><text fill="#000000" stroke="none" font-family="Helvetica,Arial" font-size="15.200000000000001px" font-style="normal" font-weight="normal" text-decoration="normal" x="247.5" y="271.896" text-anchor="middle" dominant-baseline="alphabetic">57</text></g></svg>