<svg version="1.1" xmlns="http://www.w3.org/2000/svg" xmlns:xlink="http://www.w3.org/1999/xlink" width="114" height="148"><defs/><g><rect fill="rgb(255,255,255)" stroke="none" x="0" y="0" width="114" height="148" fill-opacity="0"/><path fill="none" stroke="#000000" paint-order="fill stroke markers" d=" M 57.5 17.1 L 19.5 131.1" stroke-linecap="round" stroke-miterlimit="10" stroke-width="3"/><path fill="none" stroke="#000000" paint-order="fill stroke markers" d=" M 19.5 131.1 L 95.5 131.1" stroke-linecap="round" stroke-miterlimit="10" stroke-width="3"/><path fill="none" stroke="#000000" paint-order="fill stroke markers" d=" M 57.5 17.1 L 95.5 131.1" stroke-linecap="round" stroke-miterlimit="10" stroke-width="3"/><path fill="none" stroke="#000000" paint-order="fill stroke markers" d=" M 57.5 17.1 L 133.5 17.1" stroke-linecap="round" stroke-miterlimit="10" stroke-width="3"/><path fill="none" stroke="#000000" paint-order="fill stroke markers" d=" M 133.5 17.1 L 95.5 131.1" stroke-linecap="round" stroke-miterlimit="10" stroke-width="3"/><path fill="none" stroke="#000000" paint-order="fill stroke markers" d=" M -18.5 17.1 L 19.5 131.1" stroke-linecap="round" stroke-miterlimit="10" stroke-width="3"/><path fill="none" stroke="#000000" paint-order="fill stroke markers" d=" M -18.5 17.1 L 57.5 17.1" stroke-linecap="round" stroke-miterlimit="10" stroke-width="3"/><path fill="none" stroke="#000000" paint-order="fill stroke markers" d=" M -18.5 131.1 L 19.5 131.1" stroke-linecap="round" stroke-miterlimit="10" stroke-width="3"/><path fill="none" stroke="#000000" paint-order="fill stroke markers" d=" M 95.5 131.1 L 133.5 131.1" stroke-linecap="round" stroke-miterlimit="10" stroke-width="3"/><path fill="none" stroke="#444444" paint-order="fill stroke markers" d=" M 57.5 17.1 L 57.5 131.1" stroke-linecap="square" stroke-miterlimit="10" stroke-dasharray="2.28,5.32"/><path fill="none" stroke="#444444" paint-order="fill stroke markers" d=" M 57.5 -20.900000000000006 L 57.5 169.1" stroke-linecap="square" stroke-miterlimit="10" stroke-dasharray="2.28,5.32"/><path fill="none" stroke="#444444" paint-order="fill stroke markers" d=" M -18.5 93.1 L 133.5 93.1" stroke-linecap="square" stroke-miterlimit="10" stroke-dasharray="2.28,5.32"/><path fill="#000000" stroke="none" paint-order="stroke fill markers" d=" M 21.6 17.1 A 2.1 2.1 0 1 0 21.59999895000009 17.10209999965"/><path fill="#000000" stroke="none" paint-order="stroke fill markers" d=" M 59.6 17.1 A 2.1 2.1 0 1 0 59.599998950000085 17.10209999965"/><path fill="#000000" stroke="none" paint-order="stroke fill markers" d=" M 59.6 55.1 A 2.1 2.1 0 1 0 59.599998950000085 55.10209999965"/><path fill="#000000" stroke="none" paint-order="stroke fill markers" d=" M 21.6 55.1 A 2.1 2.1 0 1 0 21.59999895000009 55.10209999965"/><path fill="#000000" stroke="none" paint-order="stroke fill markers" d=" M 97.6 17.1 A 2.1 2.1 0 1 0 97.59999895000009 17.10209999965"/><path fill="#000000" stroke="none" paint-order="stroke fill markers" d=" M 97.6 55.1 A 2.1 2.1 0 1 0 97.59999895000009 55.10209999965"/><path fill="#000000" stroke="none" paint-order="stroke fill markers" d=" M 59.6 93.1 A 2.1 2.1 0 1 0 59.599998950000085 93.10209999965"/><path fill="#000000" stroke="none" paint-order="stroke fill markers" d=" M 21.6 93.1 A 2.1 2.1 0 1 0 21.59999895000009 93.10209999965"/><path fill="#000000" stroke="none" paint-order="stroke fill markers" d=" M 97.6 93.1 A 2.1 2.1 0 1 0 97.59999895000009 93.10209999965"/><path fill="#000000" stroke="none" paint-order="stroke fill markers" d=" M 59.6 131.1 A 2.1 2.1 0 1 0 59.599998950000085 131.10209999965"/><path fill="#000000" stroke="none" paint-order="stroke fill markers" d=" M 21.6 131.1 A 2.1 2.1 0 1 0 21.59999895000009 131.10209999965"/><path fill="#000000" stroke="none" paint-order="stroke fill markers" d=" M 97.6 131.1 A 2.1 2.1 0 1 0 97.59999895000009 131.10209999965"/><path fill="#ffffff" stroke="#000000" paint-order="fill stroke markers" d=" M 46.86 74.1 A 8.36 8.36 0 1 1 46.85999582000035 74.09164000139333" stroke-miterlimit="10"/><path fill="#ffffff" stroke="#000000" paint-order="fill stroke markers" d=" M 84.86 74.1 A 8.36 8.36 0 1 1 84.85999582000035 74.09164000139333" stroke-miterlimit="10"/><path fill="#ffffff" stroke="#000000" paint-order="fill stroke markers" d=" M 65.86 17.1 A 8.36 8.36 0 1 1 65.85999582000035 17.09164000139333" stroke-miterlimit="10"/><path fill="#ffffff" stroke="#000000" paint-order="fill stroke markers" d=" M 103.86 17.1 A 8.36 8.36 0 1 1 103.85999582000035 17.09164000139333" stroke-miterlimit="10"/><path fill="#ffffff" stroke="#000000" paint-order="fill stroke markers" d=" M 27.86 55.1 A 8.36 8.36 0 1 1 27.85999582000035 55.09164000139333" stroke-miterlimit="10"/><path fill="#ffffff" stroke="#000000" paint-order="fill stroke markers" d=" M 65.86 93.1 A 8.36 8.36 0 1 1 65.85999582000035 93.09164000139333" stroke-miterlimit="10"/><text fill="none" stroke="rgb(255,255,255)" font-family="Helvetica,Arial" font-size="15.200000000000001px" font-style="normal" font-weight="normal" text-decoration="normal" x="38.5" y="79.496" text-anchor="middle" dominant-baseline="alphabetic" stroke-opacity="0" stroke-miterlimit="10">3</text><text fill="#000000" stroke="none" font-family="Helvetica,Arial" font-size="15.200000000000001px" font-style="normal" font-weight="normal" text-decoration="normal" x="38.5" y="79.496" text-anchor="middle" dominant-baseline="alphabetic">3</text><text fill="none" stroke="rgb(255,255,255)" font-family="Helvetica,Arial" font-size="15.200000000000001px" font-style="normal" font-weight="normal" text-decoration="normal" x="76.5" y="79.496" text-anchor="middle" dominant-baseline="alphabetic" stroke-opacity="0" stroke-miterlimit="10">4</text><text fill="#000000" stroke="none" font-family="Helvetica,Arial" font-size="15.200000000000001px" font-style="normal" font-weight="normal" text-decoration="normal" x="76.5" y="79.496" text-anchor="middle" dominant-baseline="alphabetic">4</text><text fill="none" stroke="rgb(255,255,255)" font-family="Helvetica,Arial" font-size="15.200000000000001px" font-style="normal" font-weight="normal" text-decoration="normal" x="57.5" y="22.496000000000002" text-anchor="middle" dominant-baseline="alphabetic" stroke-opacity="0" stroke-miterlimit="10">0</text><text fill="#000000" stroke="none" font-family="Helvetica,Arial" font-size="15.200000000000001px" font-style="normal" font-weight="normal" text-decoration="normal" x="57.5" y="22.496000000000002" text-anchor="middle" dominant-baseline="alphabetic">0</text><text fill="none" stroke="rgb(255,255,255)" font-family="Helvetica,Arial" font-size="15.200000000000001px" font-style="normal" font-weight="normal" text-decoration="normal" x="95.5" y="22.496000000000002" text-anchor="middle" dominant-baseline="alphabetic" stroke-opacity="0" stroke-miterlimit="10">5</text><text fill="#000000" stroke="none" font-family="Helvetica,Arial" font-size="15.200000000000001px" font-style="normal" font-weight="normal" text-decoration="normal" x="95.5" y="22.496000000000002" text-anchor="middle" dominant-baseline="alphabetic">5</text><text fill="none" stroke="rgb(255,255,255)" font-family="Helvetica,Arial" font-size="15.200000000000001px" font-style="normal" font-weight="normal" text-decoration="normal" x="19.5" y="60.496" text-anchor="middle" dominant-baseline="alphabetic" stroke-opacity="0" stroke-miterlimit="10">2</text><text fill="#000000" stroke="none" font-family="Helvetica,Arial" font-size="15.200000000000001px" font-style="normal" font-weight="normal" text-decoration="normal" x="19.5" y="60.496" text-anchor="middle" dominant-baseline="alphabetic">2</text><text fill="none" stroke="rgb(255,255,255)" font-family="Helvetica,Arial" font-size="15.200000000000001px" font-style="normal" font-weight="normal" text-decoration="normal" x="57.5" y="98.496" text-anchor="middle" dominant-baseline="alphabetic" stroke-opacity="0" stroke-miterlimit="10">1</text><text fill="#000000" stroke="none" font-family="Helvetica,Arial" font-size="15.200000000000001px" font-style="normal" font-weight="normal" text-decoration="normal" x="57.5" y="98.496" text-anchor="middle" dominant-baseline="alphabetic">1</text></g></svg>