<svg version="1.1" xmlns="http://www.w3.org/2000/svg" xmlns:xlink="http://www.w3.org/1999/xlink" width="266" height="190"><defs/><g><rect fill="rgb(255,255,255)" stroke="none" x="0" y="0" width="266" height="190" fill-opacity="0"/><path fill="none" stroke="#000000" paint-order="fill stroke markers" d=" M 57.5 19.5 L 19.5 57.5" stroke-linecap="round" stroke-miterlimit="10" stroke-width="3"/><path fill="none" stroke="#000000" paint-order="fill stroke markers" d=" M 19.5 57.5 L 19.5 133.5" stroke-linecap="round" stroke-miterlimit="10" stroke-width="3"/><path fill="none" stroke="#000000" paint-order="fill stroke markers" d=" M 19.5 133.5 L 57.5 171.5" stroke-linecap="round" stroke-miterlimit="10" stroke-width="3"/><path fill="none" stroke="#000000" paint-order="fill stroke markers" d=" M 57.5 171.5 L 133.5 171.5" stroke-linecap="round" stroke-miterlimit="10" stroke-width="3"/><path fill="none" stroke="#000000" paint-order="fill stroke markers" d=" M 171.5 133.5 L 133.5 171.5" stroke-linecap="round" stroke-miterlimit="10" stroke-width="3"/><path fill="none" stroke="#000000" paint-order="fill stroke markers" d=" M 171.5 57.5 L 171.5 133.5" stroke-linecap="round" stroke-miterlimit="10" stroke-width="3"/><path fill="none" stroke="#000000" paint-order="fill stroke markers" d=" M 133.5 19.5 L 171.5 57.5" stroke-linecap="round" stroke-miterlimit="10" stroke-width="3"/><path fill="none" stroke="#000000" paint-order="fill stroke markers" d=" M 57.5 19.5 L 133.5 19.5" stroke-linecap="round" stroke-miterlimit="10" stroke-width="3"/><path fill="none" stroke="#000000" paint-order="fill stroke markers" d=" M 171.5 57.5 L 247.5 57.5" stroke-linecap="round" stroke-miterlimit="10" stroke-width="3"/><path fill="none" stroke="#000000" paint-order="fill stroke markers" d=" M 247.5 57.5 L 247.5 133.5" stroke-linecap="round" stroke-miterlimit="10" stroke-width="3"/><path fill="none" stroke="#000000" paint-order="fill stroke markers" d=" M 171.5 133.5 L 247.5 133.5" stroke-linecap="round" stroke-miterlimit="10" stroke-width="3"/><path fill="none" stroke="#000000" paint-order="fill stroke markers" d=" M 247.5 133.5 L 285.5 171.5" stroke-linecap="round" stroke-miterlimit="10" stroke-width="3"/><path fill="none" stroke="#000000" paint-order="fill stroke markers" d=" M 285.5 19.5 L 247.5 57.5" stroke-linecap="round" stroke-miterlimit="10" stroke-width="3"/><path fill="none" stroke="#000000" paint-order="fill stroke markers" d=" M 133.5 -18.5 L 133.5 19.5" stroke-linecap="round" stroke-miterlimit="10" stroke-width="3"/><path fill="none" stroke="#000000" paint-order="fill stroke markers" d=" M 57.5 -18.5 L 57.5 19.5" stroke-linecap="round" stroke-miterlimit="10" stroke-width="3"/><path fill="none" stroke="#000000" paint-order="fill stroke markers" d=" M 57.5 171.5 L 57.5 209.5" stroke-linecap="round" stroke-miterlimit="10" stroke-width="3"/><path fill="none" stroke="#000000" paint-order="fill stroke markers" d=" M 133.5 171.5 L 133.5 209.5" stroke-linecap="round" stroke-miterlimit="10" stroke-width="3"/><path fill="none" stroke="#000000" paint-order="fill stroke markers" d=" M -18.5 57.5 L 19.5 57.5" stroke-linecap="round" stroke-miterlimit="10" stroke-width="3"/><path fill="none" stroke="#000000" paint-order="fill stroke markers" d=" M -18.5 133.5 L 19.5 133.5" stroke-linecap="round" stroke-miterlimit="10" stroke-width="3"/><path fill="none" stroke="#444444" paint-order="fill stroke markers" d=" M 95.5 -18.5 L 95.5 209.5" stroke-linecap="square" stroke-miterlimit="10" stroke-dasharray="2.28,5.32"/><path fill="none" stroke="#444444" paint-order="fill stroke markers" d=" M -18.5 95.5 L 285.5 95.5" stroke-linecap="square" stroke-miterlimit="10" stroke-dasharray="2.28,5.32"/><path fill="#000000" stroke="none" paint-order="stroke fill markers" d=" M 21.6 19.5 A 2.1 2.1 0 1 0 21.59999895000009 19.50209999965"/><path fill="#000000" stroke="none" paint-order="stroke fill markers" d=" M 59.6 19.5 A 2.1 2.1 0 1 0 59.599998950000085 19.50209999965"/><path fill="#000000" stroke="none" paint-order="stroke fill markers" d=" M 59.6 57.5 A 2.1 2.1 0 1 0 59.599998950000085 57.50209999965"/><path fill="#000000" stroke="none" paint-order="stroke fill markers" d=" M 21.6 57.5 A 2.1 2.1 0 1 0 21.59999895000009 57.50209999965"/><path fill="#000000" stroke="none" paint-order="stroke fill markers" d=" M 97.6 19.5 A 2.1 2.1 0 1 0 97.59999895000009 19.50209999965"/><path fill="#000000" stroke="none" paint-order="stroke fill markers" d=" M 97.6 57.5 A 2.1 2.1 0 1 0 97.59999895000009 57.50209999965"/><path fill="#000000" stroke="none" paint-order="stroke fill markers" d=" M 135.6 19.5 A 2.1 2.1 0 1 0 135.5999989500001 19.50209999965"/><path fill="#000000" stroke="none" paint-order="stroke fill markers" d=" M 135.6 57.5 A 2.1 2.1 0 1 0 135.5999989500001 57.50209999965"/><path fill="#000000" stroke="none" paint-order="stroke fill markers" d=" M 173.6 19.5 A 2.1 2.1 0 1 0 173.5999989500001 19.50209999965"/><path fill="#000000" stroke="none" paint-order="stroke fill markers" d=" M 173.6 57.5 A 2.1 2.1 0 1 0 173.5999989500001 57.50209999965"/><path fill="#000000" stroke="none" paint-order="stroke fill markers" d=" M 211.6 19.5 A 2.1 2.1 0 1 0 211.5999989500001 19.50209999965"/><path fill="#000000" stroke="none" paint-order="stroke fill markers" d=" M 211.6 57.5 A 2.1 2.1 0 1 0 211.5999989500001 57.50209999965"/><path fill="#000000" stroke="none" paint-order="stroke fill markers" d=" M 249.6 19.5 A 2.1 2.1 0 1 0 249.5999989500001 19.50209999965"/><path fill="#000000" stroke="none" paint-order="stroke fill markers" d=" M 249.6 57.5 A 2.1 2.1 0 1 0 249.5999989500001 57.50209999965"/><path fill="#000000" stroke="none" paint-order="stroke fill markers" d=" M 59.6 95.5 A 2.1 2.1 0 1 0 59.599998950000085 95.50209999965"/><path fill="#000000" stroke="none" paint-order="stroke fill markers" d=" M 21.6 95.5 A 2.1 2.1 0 1 0 21.59999895000009 95.50209999965"/><path fill="#000000" stroke="none" paint-order="stroke fill markers" d=" M 97.6 95.5 A 2.1 2.1 0 1 0 97.59999895000009 95.50209999965"/><path fill="#000000" stroke="none" paint-order="stroke fill markers" d=" M 135.6 95.5 A 2.1 2.1 0 1 0 135.5999989500001 95.50209999965"/><path fill="#000000" stroke="none" paint-order="stroke fill markers" d=" M 173.6 95.5 A 2.1 2.1 0 1 0 173.5999989500001 95.50209999965"/><path fill="#000000" stroke="none" paint-order="stroke fill markers" d=" M 211.6 95.5 A 2.1 2.1 0 1 0 211.5999989500001 95.50209999965"/><path fill="#000000" stroke="none" paint-order="stroke fill markers" d=" M 249.6 95.5 A 2.1 2.1 0 1 0 249.5999989500001 95.50209999965"/><path fill="#000000" stroke="none" paint-order="stroke fill markers" d=" M 59.6 133.5 A 2.1 2.1 0 1 0 59.599998950000085 133.50209999965"/><path fill="#000000" stroke="none" paint-order="stroke fill markers" d=" M 21.6 133.5 A 2.1 2.1 0 1 0 21.59999895000009 133.50209999965"/><path fill="#000000" stroke="none" paint-order="stroke fill markers" d=" M 97.6 133.5 A 2.1 2.1 0 1 0 97.59999895000009 133.50209999965"/><path fill="#000000" stroke="none" paint-order="stroke fill markers" d=" M 135.6 133.5 A 2.1 2.1 0 1 0 135.5999989500001 133.50209999965"/><path fill="#000000" stroke="none" paint-order="stroke fill markers" d=" M 173.6 133.5 A 2.1 2.1 0 1 0 173.5999989500001 133.50209999965"/><path fill="#000000" stroke="none" paint-order="stroke fill markers" d=" M 211.6 133.5 A 2.1 2.1 0 1 0 211.5999989500001 133.50209999965"/><path fill="#000000" stroke="none" paint-order="stroke fill markers" d=" M 249.6 133.5 A 2.1 2.1 0 1 0 249.5999989500001 133.50209999965"/><path fill="#000000" stroke="none" paint-order="stroke fill markers" d=" M 59.6 171.5 A 2.1 2.1 0 1 0 59.599998950000085 171.50209999965"/><path fill="#000000" stroke="none" paint-order="stroke fill markers" d=" M 21.6 171.5 A 2.1 2.1 0 1 0 21.59999895000009 171.50209999965"/><path fill="#000000" stroke="none" paint-order="stroke fill markers" d=" M 97.6 171.5 A 2.1 2.1 0 1 0 97.59999895000009 171.50209999965"/><path fill="#000000" stroke="none" paint-order="stroke fill markers" d=" M 135.6 171.5 A 2.1 2.1 0 1 0 135.5999989500001 171.50209999965"/><path fill="#000000" stroke="none" paint-order="stroke fill markers" d=" M 173.6 171.5 A 2.1 2.1 0 1 0 173.5999989500001 171.50209999965"/><path fill="#000000" stroke="none" paint-order="stroke fill markers" d=" M 211.6 171.5 A 2.1 2.1 0 1 0 211.5999989500001 171.50209999965"/><path fill="#000000" stroke="none" paint-order="stroke fill markers" d=" M 249.6 171.5 A 2.1 2.1 0 1 0 249.5999989500001 171.50209999965"/><path fill="#ffffff" stroke="#000000" paint-order="fill stroke markers" d=" M 51.8 152.5 A 13.299999999999999 13.299999999999999 0 1 1 51.799993350000555 152.48670000221665" stroke-miterlimit="10"/><path fill="#ffffff" stroke="#000000" paint-order="fill stroke markers" d=" M 165.8 152.5 A 13.299999999999999 13.299999999999999 0 1 1 165.79999335000056 152.48670000221665" stroke-miterlimit="10"/><path fill="#ffffff" stroke="#000000" paint-order="fill stroke markers" d=" M 108.8 95.5 A 13.299999999999999 13.299999999999999 0 1 1 108.79999335000055 95.48670000221666" stroke-miterlimit="10"/><path fill="#ffffff" stroke="#000000" paint-order="fill stroke markers" d=" M 184.8 95.5 A 13.299999999999999 13.299999999999999 0 1 1 184.79999335000056 95.48670000221666" stroke-miterlimit="10"/><path fill="#ffffff" stroke="#000000" paint-order="fill stroke markers" d=" M 222.8 95.5 A 13.299999999999999 13.299999999999999 0 1 1 222.79999335000056 95.48670000221666" stroke-miterlimit="10"/><path fill="#ffffff" stroke="#000000" paint-order="fill stroke markers" d=" M 260.8 95.5 A 13.299999999999999 13.299999999999999 0 1 1 260.79999335000053 95.48670000221666" stroke-miterlimit="10"/><path fill="#ffffff" stroke="#000000" paint-order="fill stroke markers" d=" M 184.8 133.5 A 13.299999999999999 13.299999999999999 0 1 1 184.79999335000056 133.48670000221665" stroke-miterlimit="10"/><path fill="#ffffff" stroke="#000000" paint-order="fill stroke markers" d=" M 222.8 133.5 A 13.299999999999999 13.299999999999999 0 1 1 222.79999335000056 133.48670000221665" stroke-miterlimit="10"/><path fill="#ffffff" stroke="#000000" paint-order="fill stroke markers" d=" M 260.8 133.5 A 13.299999999999999 13.299999999999999 0 1 1 260.79999335000053 133.48670000221665" stroke-miterlimit="10"/><path fill="#ffffff" stroke="#000000" paint-order="fill stroke markers" d=" M 70.8 171.5 A 13.299999999999999 13.299999999999999 0 1 1 70.79999335000055 171.48670000221665" stroke-miterlimit="10"/><path fill="#ffffff" stroke="#000000" paint-order="fill stroke markers" d=" M 108.8 171.5 A 13.299999999999999 13.299999999999999 0 1 1 108.79999335000055 171.48670000221665" stroke-miterlimit="10"/><path fill="#ffffff" stroke="#000000" paint-order="fill stroke markers" d=" M 146.8 171.5 A 13.299999999999999 13.299999999999999 0 1 1 146.79999335000056 171.48670000221665" stroke-miterlimit="10"/><text fill="none" stroke="rgb(255,255,255)" font-family="Helvetica,Arial" font-size="15.200000000000001px" font-style="normal" font-weight="normal" text-decoration="normal" x="38.5" y="157.896" text-anchor="middle" dominant-baseline="alphabetic" stroke-opacity="0" stroke-miterlimit="10">17</text><text fill="#000000" stroke="none" font-family="Helvetica,Arial" font-size="15.200000000000001px" font-style="normal" font-weight="normal" text-decoration="normal" x="38.5" y="157.896" text-anchor="middle" dominant-baseline="alphabetic">17</text><text fill="none" stroke="rgb(255,255,255)" font-family="Helvetica,Arial" font-size="15.200000000000001px" font-style="normal" font-weight="normal" text-decoration="normal" x="152.5" y="157.896" text-anchor="middle" dominant-baseline="alphabetic" stroke-opacity="0" stroke-miterlimit="10">15</text><text fill="#000000" stroke="none" font-family="Helvetica,Arial" font-size="15.200000000000001px" font-style="normal" font-weight="normal" text-decoration="normal" x="152.5" y="157.896" text-anchor="middle" dominant-baseline="alphabetic">15</text><text fill="none" stroke="rgb(255,255,255)" font-family="Helvetica,Arial" font-size="15.200000000000001px" font-style="normal" font-weight="normal" text-decoration="normal" x="95.5" y="100.896" text-anchor="middle" dominant-baseline="alphabetic" stroke-opacity="0" stroke-miterlimit="10">0</text><text fill="#000000" stroke="none" font-family="Helvetica,Arial" font-size="15.200000000000001px" font-style="normal" font-weight="normal" text-decoration="normal" x="95.5" y="100.896" text-anchor="middle" dominant-baseline="alphabetic">0</text><text fill="none" stroke="rgb(255,255,255)" font-family="Helvetica,Arial" font-size="15.200000000000001px" font-style="normal" font-weight="normal" text-decoration="normal" x="171.5" y="100.896" text-anchor="middle" dominant-baseline="alphabetic" stroke-opacity="0" stroke-miterlimit="10">14</text><text fill="#000000" stroke="none" font-family="Helvetica,Arial" font-size="15.200000000000001px" font-style="normal" font-weight="normal" text-decoration="normal" x="171.5" y="100.896" text-anchor="middle" dominant-baseline="alphabetic">14</text><text fill="none" stroke="rgb(255,255,255)" font-family="Helvetica,Arial" font-size="15.200000000000001px" font-style="normal" font-weight="normal" text-decoration="normal" x="209.5" y="100.896" text-anchor="middle" dominant-baseline="alphabetic" stroke-opacity="0" stroke-miterlimit="10">1</text><text fill="#000000" stroke="none" font-family="Helvetica,Arial" font-size="15.200000000000001px" font-style="normal" font-weight="normal" text-decoration="normal" x="209.5" y="100.896" text-anchor="middle" dominant-baseline="alphabetic">1</text><text fill="none" stroke="rgb(255,255,255)" font-family="Helvetica,Arial" font-size="15.200000000000001px" font-style="normal" font-weight="normal" text-decoration="normal" x="247.5" y="100.896" text-anchor="middle" dominant-baseline="alphabetic" stroke-opacity="0" stroke-miterlimit="10">22</text><text fill="#000000" stroke="none" font-family="Helvetica,Arial" font-size="15.200000000000001px" font-style="normal" font-weight="normal" text-decoration="normal" x="247.5" y="100.896" text-anchor="middle" dominant-baseline="alphabetic">22</text><text fill="none" stroke="rgb(255,255,255)" font-family="Helvetica,Arial" font-size="15.200000000000001px" font-style="normal" font-weight="normal" text-decoration="normal" x="171.5" y="138.896" text-anchor="middle" dominant-baseline="alphabetic" stroke-opacity="0" stroke-miterlimit="10">2</text><text fill="#000000" stroke="none" font-family="Helvetica,Arial" font-size="15.200000000000001px" font-style="normal" font-weight="normal" text-decoration="normal" x="171.5" y="138.896" text-anchor="middle" dominant-baseline="alphabetic">2</text><text fill="none" stroke="rgb(255,255,255)" font-family="Helvetica,Arial" font-size="15.200000000000001px" font-style="normal" font-weight="normal" text-decoration="normal" x="209.5" y="138.896" text-anchor="middle" dominant-baseline="alphabetic" stroke-opacity="0" stroke-miterlimit="10">23</text><text fill="#000000" stroke="none" font-family="Helvetica,Arial" font-size="15.200000000000001px" font-style="normal" font-weight="normal" text-decoration="normal" x="209.5" y="138.896" text-anchor="middle" dominant-baseline="alphabetic">23</text><text fill="none" stroke="rgb(255,255,255)" font-family="Helvetica,Arial" font-size="15.200000000000001px" font-style="normal" font-weight="normal" text-decoration="normal" x="247.5" y="138.896" text-anchor="middle" dominant-baseline="alphabetic" stroke-opacity="0" stroke-miterlimit="10">10</text><text fill="#000000" stroke="none" font-family="Helvetica,Arial" font-size="15.200000000000001px" font-style="normal" font-weight="normal" text-decoration="normal" x="247.5" y="138.896" text-anchor="middle" dominant-baseline="alphabetic">10</text><text fill="none" stroke="rgb(255,255,255)" font-family="Helvetica,Arial" font-size="15.200000000000001px" font-style="normal" font-weight="normal" text-decoration="normal" x="57.5" y="176.896" text-anchor="middle" dominant-baseline="alphabetic" stroke-opacity="0" stroke-miterlimit="10">4</text><text fill="#000000" stroke="none" font-family="Helvetica,Arial" font-size="15.200000000000001px" font-style="normal" font-weight="normal" text-decoration="normal" x="57.5" y="176.896" text-anchor="middle" dominant-baseline="alphabetic">4</text><text fill="none" stroke="rgb(255,255,255)" font-family="Helvetica,Arial" font-size="15.200000000000001px" font-style="normal" font-weight="normal" text-decoration="normal" x="95.5" y="176.896" text-anchor="middle" dominant-baseline="alphabetic" stroke-opacity="0" stroke-miterlimit="10">16</text><text fill="#000000" stroke="none" font-family="Helvetica,Arial" font-size="15.200000000000001px" font-style="normal" font-weight="normal" text-decoration="normal" x="95.5" y="176.896" text-anchor="middle" dominant-baseline="alphabetic">16</text><text fill="none" stroke="rgb(255,255,255)" font-family="Helvetica,Arial" font-size="15.200000000000001px" font-style="normal" font-weight="normal" text-decoration="normal" x="133.5" y="176.896" text-anchor="middle" dominant-baseline="alphabetic" stroke-opacity="0" stroke-miterlimit="10">3</text><text fill="#000000" stroke="none" font-family="Helvetica,Arial" font-size="15.200000000000001px" font-style="normal" font-weight="normal" text-decoration="normal" x="133.5" y="176.896" text-anchor="middle" dominant-baseline="alphabetic">3</text></g></svg>